<?xml version="1.0" encoding="UTF-8" standalone="no"?>
<!-- Created with Inkscape (http://www.inkscape.org/) -->

<svg
   xmlns:dc="http://purl.org/dc/elements/1.1/"
   xmlns:cc="http://creativecommons.org/ns#"
   xmlns:rdf="http://www.w3.org/1999/02/22-rdf-syntax-ns#"
   xmlns:svg="http://www.w3.org/2000/svg"
   xmlns="http://www.w3.org/2000/svg"
   xmlns:sodipodi="http://sodipodi.sourceforge.net/DTD/sodipodi-0.dtd"
   xmlns:inkscape="http://www.inkscape.org/namespaces/inkscape"
   width="744.09448819"
   height="1052.3622047"
   id="svg2"
   inkscape:label="Pozad  "
   version="1.1"
   inkscape:version="0.48.3.1 r9886"
   sodipodi:docname="diffusion3.svg">
  <defs
     id="defs3">
    <inkscape:perspective
       sodipodi:type="inkscape:persp3d"
       inkscape:vp_x="0 : 526.18109 : 1"
       inkscape:vp_y="0 : 1000 : 0"
       inkscape:vp_z="744.09448 : 526.18109 : 1"
       inkscape:persp3d-origin="372.04724 : 350.78739 : 1"
       id="perspective9" />
    <inkscape:perspective
       id="perspective3492"
       inkscape:persp3d-origin="0.5 : 0.33333333 : 1"
       inkscape:vp_z="1 : 0.5 : 1"
       inkscape:vp_y="0 : 1000 : 0"
       inkscape:vp_x="0 : 0.5 : 1"
       sodipodi:type="inkscape:persp3d" />
  </defs>
  <sodipodi:namedview
     id="base"
     pagecolor="#ffffff"
     bordercolor="#666666"
     borderopacity="1.0"
     inkscape:pageopacity="0.0"
     inkscape:pageshadow="2"
     inkscape:zoom="0.35"
     inkscape:cx="-142.14286"
     inkscape:cy="405.71429"
     inkscape:document-units="px"
     inkscape:current-layer="layer1"
     showgrid="false"
     inkscape:window-width="1366"
     inkscape:window-height="715"
     inkscape:window-x="0"
     inkscape:window-y="31"
     inkscape:window-maximized="1"
     showguides="true"
     inkscape:guide-bbox="true">
    <sodipodi:guide
       orientation="-0.70710678,0.70710678"
       position="-2.8571429,57.142857"
       id="guide3108" />
    <inkscape:grid
       type="xygrid"
       id="grid3880" />
  </sodipodi:namedview>
  <metadata
     id="metadata6">
    <rdf:RDF>
      <cc:Work
         rdf:about="">
        <dc:format>image/svg+xml</dc:format>
        <dc:type
           rdf:resource="http://purl.org/dc/dcmitype/StillImage" />
        <dc:title></dc:title>
      </cc:Work>
    </rdf:RDF>
  </metadata>
  <g
     inkscape:label="Vrstva 1"
     inkscape:groupmode="layer"
     id="layer1">
    <g
       id="g3979">
      <g
         id="g3965">
        <path
           sodipodi:type="arc"
           style="fill:#4f4f4f;fill-opacity:1;stroke:#bfbfbf;stroke-width:16.02231979;stroke-miterlimit:4;stroke-opacity:1;stroke-dasharray:none"
           id="path3589-5"
           sodipodi:cx="327.14285"
           sodipodi:cy="342.36218"
           sodipodi:rx="155.71428"
           sodipodi:ry="155.71428"
           d="m 482.85713,342.36218 a 155.71428,155.71428 0 1 1 -311.42856,0 155.71428,155.71428 0 1 1 311.42856,0 z"
           transform="matrix(0.58916317,0,0,0.57680575,-524.48164,134.88571)" />
        <path
           sodipodi:type="arc"
           style="fill:#4f4f4f;fill-opacity:1;stroke:#bfbfbf;stroke-width:16.02231979;stroke-miterlimit:4;stroke-opacity:1;stroke-dasharray:none"
           id="path3589-5-6"
           sodipodi:cx="327.14285"
           sodipodi:cy="342.36218"
           sodipodi:rx="155.71428"
           sodipodi:ry="155.71428"
           d="m 482.85713,342.36218 a 155.71428,155.71428 0 1 1 -311.42856,0 155.71428,155.71428 0 1 1 311.42856,0 z"
           transform="matrix(0.60908163,0,0,0.5963063,-925.98483,77.648441)" />
        <path
           sodipodi:type="arc"
           style="fill:#4f4f4f;fill-opacity:1;stroke:#bfbfbf;stroke-width:16.02231979;stroke-miterlimit:4;stroke-opacity:1;stroke-dasharray:none"
           id="path3589-5-8"
           sodipodi:cx="327.14285"
           sodipodi:cy="342.36218"
           sodipodi:rx="155.71428"
           sodipodi:ry="155.71428"
           d="m 482.85713,342.36218 a 155.71428,155.71428 0 1 1 -311.42856,0 155.71428,155.71428 0 1 1 311.42856,0 z"
           transform="matrix(0.60908163,0,0,0.5963063,-478.16594,790.00382)" />
        <path
           sodipodi:type="arc"
           style="fill:#4f4f4f;fill-opacity:1;stroke:#bfbfbf;stroke-width:16.02231979;stroke-miterlimit:4;stroke-opacity:1;stroke-dasharray:none"
           id="path3589-5-8-7"
           sodipodi:cx="327.14285"
           sodipodi:cy="342.36218"
           sodipodi:rx="155.71428"
           sodipodi:ry="155.71428"
           d="m 482.85713,342.36218 a 155.71428,155.71428 0 1 1 -311.42856,0 155.71428,155.71428 0 1 1 311.42856,0 z"
           transform="matrix(0.60908163,0,0,0.5963063,-931.06539,837.85968)" />
        <path
           sodipodi:type="arc"
           style="fill:#4f4f4f;fill-opacity:1;stroke:#bfbfbf;stroke-width:21.08276749;stroke-miterlimit:4;stroke-opacity:1;stroke-dasharray:none"
           id="path3589-5-6-2-1"
           sodipodi:cx="327.14285"
           sodipodi:cy="342.36218"
           sodipodi:rx="155.71428"
           sodipodi:ry="155.71428"
           d="m 482.85713,342.36218 a 155.71428,155.71428 0 1 1 -311.42856,0 155.71428,155.71428 0 1 1 311.42856,0 z"
           transform="matrix(0.59912233,0,0,0.58655589,-720.71906,457.26191)" />
        <path
           sodipodi:type="arc"
           style="fill:#4f4f4f;fill-opacity:1;stroke:#bfbfbf;stroke-width:21.08276748999999839;stroke-miterlimit:4;stroke-opacity:1;stroke-dasharray:none"
           id="path3589-5-6-2"
           sodipodi:cx="327.14285"
           sodipodi:cy="342.36218"
           sodipodi:rx="155.71428"
           sodipodi:ry="155.71428"
           d="m 482.85713,342.36218 a 155.71428,155.71428 0 1 1 -311.42856,0 155.71428,155.71428 0 1 1 311.42856,0 z"
           transform="matrix(0.59912233,0,0,0.58655589,-1147.2149,440.84272)" />
        <path
           style="fill:#ff4500;fill-opacity:1;fill-rule:nonzero;stroke:none"
           d="m -342.09811,912.2316 -15.0315,-58.60324 -8.03891,5.18488 -82.95821,-128.6226 -16.07782,10.36978 82.9582,128.6226 -8.03891,5.18489 47.18715,37.86369 z"
           id="rect3878"
           inkscape:connector-curvature="0" />
        <path
           style="fill:#ff4500;fill-opacity:1;fill-rule:nonzero;stroke:none"
           d="m -379.36939,414.42409 -10.67321,50.63406 -7.10026,-4.12454 -66.32988,113.02653 -14.20049,-8.24909 66.32989,-113.02655 -7.10025,-4.12456 39.0742,-34.13585 z"
           id="rect3878-6"
           inkscape:connector-curvature="0"
           inkscape:transform-center-x="-103.98607"
           inkscape:transform-center-y="-49.144119" />
        <path
           style="fill:#ff4500;fill-opacity:1;fill-rule:nonzero;stroke:none"
           d="m -689.07457,940.31257 42.33558,-43.2202 -8.59981,-4.1893 67.02936,-137.5969 -17.19955,-8.3787 -67.02936,137.5969 -8.59982,-4.1893 -7.9364,59.9775 z"
           id="rect3878-2"
           inkscape:connector-curvature="0" />
        <path
           style="fill:#ff4500;fill-opacity:1;fill-rule:nonzero;stroke:none"
           d="m -764.66107,934.81126 -15.0315,-58.60326 -8.03891,5.18488 -82.95821,-128.6226 -16.07782,10.36978 82.9582,128.6226 -8.03891,5.18489 47.18715,37.86371 z"
           id="rect3878-4"
           inkscape:connector-curvature="0" />
        <path
           style="fill:#ff4500;fill-opacity:1;fill-rule:nonzero;stroke:none"
           d="m -573.23249,560.52552 -15.0315,-58.60324 -8.03891,5.18488 -82.95821,-128.6226 -16.07782,10.36978 82.9582,128.6226 -8.03891,5.18489 47.18715,37.86369 z"
           id="rect3878-5"
           inkscape:connector-curvature="0" />
        <path
           style="fill:#ff4500;fill-opacity:1;fill-rule:nonzero;stroke:none"
           d="m -901.07883,550.07132 43.81507,-41.71962 -8.44869,-4.48628 71.78047,-135.17915 -16.89739,-8.97255 -71.78048,135.17914 -8.44869,-4.48628 -10.02029,59.66474 z"
           id="rect3878-60"
           inkscape:connector-curvature="0" />
      </g>
    </g>
  </g>
</svg>
