<?xml version="1.0" encoding="UTF-8" standalone="no"?>
<!-- Created with Inkscape (http://www.inkscape.org/) -->

<svg
   xmlns:dc="http://purl.org/dc/elements/1.1/"
   xmlns:cc="http://creativecommons.org/ns#"
   xmlns:rdf="http://www.w3.org/1999/02/22-rdf-syntax-ns#"
   xmlns:svg="http://www.w3.org/2000/svg"
   xmlns="http://www.w3.org/2000/svg"
   xmlns:sodipodi="http://sodipodi.sourceforge.net/DTD/sodipodi-0.dtd"
   xmlns:inkscape="http://www.inkscape.org/namespaces/inkscape"
   width="744.09448819"
   height="1052.3622047"
   id="svg2"
   inkscape:label="Pozad  "
   version="1.1"
   inkscape:version="0.48.3.1 r9886"
   sodipodi:docname="network1.svg">
  <defs
     id="defs3">
    <inkscape:perspective
       sodipodi:type="inkscape:persp3d"
       inkscape:vp_x="0 : 526.18109 : 1"
       inkscape:vp_y="0 : 1000 : 0"
       inkscape:vp_z="744.09448 : 526.18109 : 1"
       inkscape:persp3d-origin="372.04724 : 350.78739 : 1"
       id="perspective9" />
    <inkscape:perspective
       id="perspective3492"
       inkscape:persp3d-origin="0.5 : 0.33333333 : 1"
       inkscape:vp_z="1 : 0.5 : 1"
       inkscape:vp_y="0 : 1000 : 0"
       inkscape:vp_x="0 : 0.5 : 1"
       sodipodi:type="inkscape:persp3d" />
  </defs>
  <sodipodi:namedview
     id="base"
     pagecolor="#ffffff"
     bordercolor="#666666"
     borderopacity="1.0"
     inkscape:pageopacity="0.0"
     inkscape:pageshadow="2"
     inkscape:zoom="0.35"
     inkscape:cx="375"
     inkscape:cy="472.20824"
     inkscape:document-units="px"
     inkscape:current-layer="layer1"
     showgrid="false"
     inkscape:window-width="1366"
     inkscape:window-height="715"
     inkscape:window-x="0"
     inkscape:window-y="31"
     inkscape:window-maximized="1" />
  <metadata
     id="metadata6">
    <rdf:RDF>
      <cc:Work
         rdf:about="">
        <dc:format>image/svg+xml</dc:format>
        <dc:type
           rdf:resource="http://purl.org/dc/dcmitype/StillImage" />
        <dc:title />
      </cc:Work>
    </rdf:RDF>
  </metadata>
  <g
     inkscape:label="Vrstva 1"
     inkscape:groupmode="layer"
     id="layer1">
    <g
       id="g3236"
       transform="translate(-5.71429,-11.428572)"
       style="fill:#7cfc00;opacity:0.99999998999999995">
      <path
         id="path3785"
         d="M 158.19472,700.20164 C 481.52053,460.24689 481.52053,460.24689 481.52053,460.24689"
         style="fill:#7cfc00;fill-opacity:1;stroke:#000000;stroke-width:12.49798870000000051;stroke-linecap:butt;stroke-linejoin:miter;stroke-miterlimit:4;stroke-opacity:1;stroke-dasharray:none"
         inkscape:connector-curvature="0" />
      <path
         id="path3781"
         d="m -103.66459,451.52883 c 4.475036,509.54403 4.475036,509.54403 4.475036,509.54403"
         style="fill:#7cfc00;fill-opacity:1;stroke:#000000;stroke-width:12.49798870000000051;stroke-linecap:butt;stroke-linejoin:miter;stroke-miterlimit:4;stroke-opacity:1;stroke-dasharray:none"
         inkscape:connector-curvature="0" />
      <path
         id="path3815"
         d="m 151.05129,636.86342 c -8.49614,-338.2897 -8.49614,-338.2897 -8.49614,-338.2897"
         style="fill:#7cfc00;fill-opacity:1;stroke:#000000;stroke-width:13.06539345000000019px;stroke-linecap:butt;stroke-linejoin:miter;stroke-opacity:1"
         inkscape:connector-curvature="0" />
      <path
         id="path3735"
         d="m 183.5782,260.31305 c 316.3321,114.9392 316.3321,114.9392 316.3321,114.9392"
         style="fill:#7cfc00;fill-opacity:1;stroke:#000000;stroke-width:12.49798870000000051;stroke-linecap:butt;stroke-linejoin:miter;stroke-miterlimit:4;stroke-opacity:1;stroke-dasharray:none"
         inkscape:connector-curvature="0" />
      <path
         id="path3819"
         d="M 67.28319,258.85916 C -65.72751,471.4796 -65.72751,470.00808 -65.72751,470.00808"
         style="fill:#7cfc00;fill-opacity:1;stroke:#000000;stroke-width:13.06539345000000019px;stroke-linecap:butt;stroke-linejoin:miter;stroke-opacity:1"
         inkscape:connector-curvature="0" />
      <path
         id="path3781-5"
         d="m -113.66609,-28.124111 c 4.47503,509.544021 4.47503,509.544021 4.47503,509.544021"
         style="fill:#7cfc00;fill-opacity:1;stroke:#000000;stroke-width:12.49798870000000051;stroke-linecap:butt;stroke-linejoin:miter;stroke-miterlimit:4;stroke-opacity:1;stroke-dasharray:none"
         inkscape:connector-curvature="0" />
      <path
         id="path3819-4"
         d="M 129.61069,667.17418 C -78.7844,527.63643 -78.182005,528.979 -78.182005,528.979"
         style="fill:#7cfc00;fill-opacity:1;stroke:#000000;stroke-width:13.06539345000000019px;stroke-linecap:butt;stroke-linejoin:miter;stroke-opacity:1"
         inkscape:connector-curvature="0" />
      <path
         id="path3819-7"
         d="M -145.57587,534.22568 C -340.61789,691.8896 -340.13832,690.49842 -340.13832,690.49842"
         style="fill:#7cfc00;fill-opacity:1;stroke:#000000;stroke-width:13.06539345000000019px;stroke-linecap:butt;stroke-linejoin:miter;stroke-opacity:1"
         inkscape:connector-curvature="0" />
      <path
         id="path3815-3"
         d="m -358.60908,644.36417 c -8.49614,-358.28971 -8.49614,-358.28971 -8.49614,-358.28971"
         style="fill:#7cfc00;fill-opacity:1;stroke:#000000;stroke-width:13.06539345000000019px;stroke-linecap:butt;stroke-linejoin:miter;stroke-opacity:1"
         inkscape:connector-curvature="0" />
      <path
         id="path3819-43"
         d="M -127.48935,454.68654 C -357.14944,252.57775 -355.36745,252.89501 -355.36745,252.89501"
         style="fill:#7cfc00;fill-opacity:1;stroke:#000000;stroke-width:13.06539249000000069px;stroke-linecap:butt;stroke-linejoin:miter;stroke-opacity:1"
         inkscape:connector-curvature="0" />
      <path
         transform="matrix(0.60908163,0,0,0.5963063,-299.63679,280.71682)"
         d="m 482.85713,342.36218 c 0,85.99862 -69.71566,155.71428 -155.71428,155.71428 -85.99862,0 -155.71428,-69.71566 -155.71428,-155.71428 0,-85.99862 69.71566,-155.71428 155.71428,-155.71428 85.99862,0 155.71428,69.71566 155.71428,155.71428 z"
         sodipodi:ry="155.71428"
         sodipodi:rx="155.71428"
         sodipodi:cy="342.36218"
         sodipodi:cx="327.14285"
         id="path3589-5-8-7"
         style="fill:#7cfc00;fill-opacity:1;stroke:#000000;stroke-width:16.02231979000000095;stroke-miterlimit:4;stroke-opacity:1;stroke-dasharray:none"
         sodipodi:type="arc" />
      <path
         id="path3815-8-9"
         d="M 66.271414,710.36571 C -271.9857,720.07294 -271.9857,720.07294 -271.9857,720.07294"
         style="fill:#7cfc00;fill-opacity:1;stroke:#000000;stroke-width:13.06539345000000019px;stroke-linecap:butt;stroke-linejoin:miter;stroke-opacity:1"
         inkscape:connector-curvature="0" />
      <path
         id="path3815-8-0-9"
         d="M -346.98719,741.02242 C -87.29852,957.9877 -87.29852,957.9877 -87.29852,957.9877"
         style="fill:#7cfc00;fill-opacity:1;stroke:#000000;stroke-width:13.06539345000000019px;stroke-linecap:butt;stroke-linejoin:miter;stroke-opacity:1"
         inkscape:connector-curvature="0" />
      <path
         transform="matrix(0.59912233,0,0,0.58655589,-541.50061,517.98557)"
         d="m 482.85713,342.36218 c 0,85.99862 -69.71566,155.71428 -155.71428,155.71428 -85.99862,0 -155.71428,-69.71566 -155.71428,-155.71428 0,-85.99862 69.71566,-155.71428 155.71428,-155.71428 85.99862,0 155.71428,69.71566 155.71428,155.71428 z"
         sodipodi:ry="155.71428"
         sodipodi:rx="155.71428"
         sodipodi:cy="342.36218"
         sodipodi:cx="327.14285"
         id="path3589-5-6-2"
         style="fill:#7cfc00;fill-opacity:1;stroke:#000000;stroke-width:21.08276748999999839;stroke-miterlimit:4;stroke-opacity:1;stroke-dasharray:none"
         sodipodi:type="arc" />
      <g
         transform="translate(37.142856,-302.85715)"
         id="g3042"
         style="fill:#7cfc00">
        <path
           inkscape:connector-curvature="0"
           style="fill:#7cfc00;fill-opacity:1;stroke:#000000;stroke-width:12.49798870000000051;stroke-linecap:butt;stroke-linejoin:miter;stroke-miterlimit:4;stroke-opacity:1;stroke-dasharray:none"
           d="m 516.28761,728.08804 c 397.21102,2.65128 397.21102,2.65128 397.21102,2.65128"
           id="path3787" />
        <path
           inkscape:connector-curvature="0"
           style="fill:#7cfc00;fill-opacity:1;stroke:#000000;stroke-width:12.49798870000000051;stroke-linecap:butt;stroke-linejoin:miter;stroke-miterlimit:4;stroke-opacity:1;stroke-dasharray:none"
           d="m 1036.7998,743.6694 c 140.2296,86.20424 140.2296,86.20424 140.2296,86.20424"
           id="path3783" />
        <path
           sodipodi:type="arc"
           style="fill:#7cfc00;fill-opacity:1;stroke:#000000;stroke-width:16.02231979000000095;stroke-miterlimit:4;stroke-opacity:1;stroke-dasharray:none"
           id="path3589-5-8"
           sodipodi:cx="327.14285"
           sodipodi:cy="342.36218"
           sodipodi:rx="155.71428"
           sodipodi:ry="155.71428"
           d="m 482.85713,342.36218 c 0,85.99862 -69.71566,155.71428 -155.71428,155.71428 -85.99862,0 -155.71428,-69.71566 -155.71428,-155.71428 0,-85.99862 69.71566,-155.71428 155.71428,-155.71428 85.99862,0 155.71428,69.71566 155.71428,155.71428 z"
           transform="matrix(0.60908163,0,0,0.5963063,273.26263,512.86095)" />
        <path
           sodipodi:type="arc"
           style="fill:#7cfc00;fill-opacity:1;stroke:#000000;stroke-width:21.08276748999999839;stroke-miterlimit:4;stroke-opacity:1;stroke-dasharray:none"
           id="path3589-5-6-2-1"
           sodipodi:cx="327.14285"
           sodipodi:cy="342.36218"
           sodipodi:rx="155.71428"
           sodipodi:ry="155.71428"
           d="m 482.85713,342.36218 c 0,85.99862 -69.71566,155.71428 -155.71428,155.71428 -85.99862,0 -155.71428,-69.71566 -155.71428,-155.71428 0,-85.99862 69.71566,-155.71428 155.71428,-155.71428 85.99862,0 155.71428,69.71566 155.71428,155.71428 z"
           transform="matrix(0.59912233,0,0,0.58655589,1051.2473,661.06121)" />
        <path
           sodipodi:type="arc"
           style="fill:#7cfc00;fill-opacity:1;stroke:#000000;stroke-width:16.02231979000000095;stroke-miterlimit:4;stroke-opacity:1;stroke-dasharray:none"
           id="path3589-5-8-0"
           sodipodi:cx="327.14285"
           sodipodi:cy="342.36218"
           sodipodi:rx="155.71428"
           sodipodi:ry="155.71428"
           d="m 482.85713,342.36218 c 0,85.99862 -69.71566,155.71428 -155.71428,155.71428 -85.99862,0 -155.71428,-69.71566 -155.71428,-155.71428 0,-85.99862 69.71566,-155.71428 155.71428,-155.71428 85.99862,0 155.71428,69.71566 155.71428,155.71428 z"
           transform="matrix(0.60908163,0,0,0.5963063,757.88616,522.49516)" />
      </g>
      <path
         id="path3815-8-0"
         d="M 138.41576,755.30815 C -121.27291,972.27339 -121.27291,972.27339 -121.27291,972.27339"
         style="fill:#7cfc00;fill-opacity:1;stroke:#000000;stroke-width:13.06539345000000019px;stroke-linecap:butt;stroke-linejoin:miter;stroke-opacity:1"
         inkscape:connector-curvature="0" />
      <path
         transform="matrix(0.58916317,0,0,0.57680575,-47.026239,517.74284)"
         d="m 482.85713,342.36218 c 0,85.99862 -69.71566,155.71428 -155.71428,155.71428 -85.99862,0 -155.71428,-69.71566 -155.71428,-155.71428 0,-85.99862 69.71566,-155.71428 155.71428,-155.71428 85.99862,0 155.71428,69.71566 155.71428,155.71428 z"
         sodipodi:ry="155.71428"
         sodipodi:rx="155.71428"
         sodipodi:cy="342.36218"
         sodipodi:cx="327.14285"
         id="path3589-5-9"
         style="fill:#7cfc00;fill-opacity:1;stroke:#000000;stroke-width:16.02231979000000095;stroke-miterlimit:4;stroke-opacity:1;stroke-dasharray:none"
         sodipodi:type="arc" />
      <path
         transform="matrix(0.58916317,0,0,0.57680575,-284.16909,720.59999)"
         d="m 482.85713,342.36218 c 0,85.99862 -69.71566,155.71428 -155.71428,155.71428 -85.99862,0 -155.71428,-69.71566 -155.71428,-155.71428 0,-85.99862 69.71566,-155.71428 155.71428,-155.71428 85.99862,0 155.71428,69.71566 155.71428,155.71428 z"
         sodipodi:ry="155.71428"
         sodipodi:rx="155.71428"
         sodipodi:cy="342.36218"
         sodipodi:cx="327.14285"
         id="path3589-5-0-4"
         style="fill:#7cfc00;fill-opacity:1;stroke:#000000;stroke-width:16.02231979000000095;stroke-miterlimit:4;stroke-opacity:1;stroke-dasharray:none"
         sodipodi:type="arc" />
      <path
         id="path3815-8-9-1"
         d="M 44.872971,221.5015 C -293.38414,211.79427 -293.38414,211.79427 -293.38414,211.79427"
         style="fill:#7cfc00;fill-opacity:1;stroke:#000000;stroke-width:13.06539345000000019px;stroke-linecap:butt;stroke-linejoin:miter;stroke-opacity:1"
         inkscape:connector-curvature="0" />
      <path
         id="path3815-8-0-9-5"
         d="M -368.38564,190.84479 C -108.69696,-26.120486 -108.69696,-26.120486 -108.69696,-26.120486"
         style="fill:#7cfc00;fill-opacity:1;stroke:#000000;stroke-width:13.06539345000000019px;stroke-linecap:butt;stroke-linejoin:miter;stroke-opacity:1"
         inkscape:connector-curvature="0" />
      <path
         transform="matrix(0.59912233,0,0,-0.58655589,-560.04192,431.0245)"
         d="m 482.85713,342.36218 c 0,85.99862 -69.71566,155.71428 -155.71428,155.71428 -85.99862,0 -155.71428,-69.71566 -155.71428,-155.71428 0,-85.99862 69.71566,-155.71428 155.71428,-155.71428 85.99862,0 155.71428,69.71566 155.71428,155.71428 z"
         sodipodi:ry="155.71428"
         sodipodi:rx="155.71428"
         sodipodi:cy="342.36218"
         sodipodi:cx="327.14285"
         id="path3589-5-6-2-9"
         style="fill:#7cfc00;fill-opacity:1;stroke:#000000;stroke-width:21.08276748999999839;stroke-miterlimit:4;stroke-opacity:1;stroke-dasharray:none"
         sodipodi:type="arc" />
      <path
         id="path3815-8-0-97"
         d="M 117.01732,176.55906 C -142.67135,-40.406176 -142.67135,-40.406176 -142.67135,-40.406176"
         style="fill:#7cfc00;fill-opacity:1;stroke:#000000;stroke-width:13.06539345000000019px;stroke-linecap:butt;stroke-linejoin:miter;stroke-opacity:1"
         inkscape:connector-curvature="0" />
      <path
         transform="matrix(0.58916317,0,0,-0.57680575,-68.424679,414.12437)"
         d="m 482.85713,342.36218 c 0,85.99862 -69.71566,155.71428 -155.71428,155.71428 -85.99862,0 -155.71428,-69.71566 -155.71428,-155.71428 0,-85.99862 69.71566,-155.71428 155.71428,-155.71428 85.99862,0 155.71428,69.71566 155.71428,155.71428 z"
         sodipodi:ry="155.71428"
         sodipodi:rx="155.71428"
         sodipodi:cy="342.36218"
         sodipodi:cx="327.14285"
         id="path3589-5-9-8"
         style="fill:#7cfc00;fill-opacity:1;stroke:#000000;stroke-width:16.02231979000000095;stroke-miterlimit:4;stroke-opacity:1;stroke-dasharray:none"
         sodipodi:type="arc" />
      <path
         transform="matrix(0.58916317,0,0,-0.57680575,-305.56753,211.26722)"
         d="m 482.85713,342.36218 c 0,85.99862 -69.71566,155.71428 -155.71428,155.71428 -85.99862,0 -155.71428,-69.71566 -155.71428,-155.71428 0,-85.99862 69.71566,-155.71428 155.71428,-155.71428 85.99862,0 155.71428,69.71566 155.71428,155.71428 z"
         sodipodi:ry="155.71428"
         sodipodi:rx="155.71428"
         sodipodi:cy="342.36218"
         sodipodi:cx="327.14285"
         id="path3589-5-0-4-1"
         style="fill:#7cfc00;fill-opacity:1;stroke:#000000;stroke-width:16.02231979000000095;stroke-miterlimit:4;stroke-opacity:1;stroke-dasharray:none"
         sodipodi:type="arc" />
    </g>
    <text
       xml:space="preserve"
       style="font-size:144px;font-style:normal;font-variant:normal;font-weight:bold;font-stretch:normal;text-align:end;line-height:125%;letter-spacing:0px;word-spacing:0px;writing-mode:lr-tb;text-anchor:end;fill:#000000;fill-opacity:1;stroke:none;font-family:Sakkal Majalla;-inkscape-font-specification:Sans Bold"
       x="-60.000004"
       y="512.36218"
       id="text3293"
       sodipodi:linespacing="125%"><tspan
         sodipodi:role="line"
         id="tspan3295"
         x="-60.000004"
         y="512.36218">D</tspan></text>
    <text
       xml:space="preserve"
       style="font-size:144px;font-style:normal;font-variant:normal;font-weight:bold;font-stretch:normal;text-align:end;line-height:125%;letter-spacing:0px;word-spacing:0px;writing-mode:lr-tb;text-anchor:end;fill:#000000;fill-opacity:1;stroke:none;font-family:Sakkal Majalla;-inkscape-font-specification:Sans Bold"
       x="169.99495"
       y="742.71814"
       id="text3293-9"
       sodipodi:linespacing="125%"><tspan
         sodipodi:role="line"
         id="tspan3295-5"
         x="169.99495"
         y="742.71814">C</tspan></text>
    <text
       xml:space="preserve"
       style="font-size:144px;font-style:normal;font-variant:normal;font-weight:bold;font-stretch:normal;text-align:end;line-height:125%;letter-spacing:0px;word-spacing:0px;writing-mode:lr-tb;text-anchor:end;fill:#000000;fill-opacity:1;stroke:none;font-family:Sakkal Majalla;-inkscape-font-specification:Sans Bold"
       x="149.99496"
       y="242.71828"
       id="text3293-8"
       sodipodi:linespacing="125%"><tspan
         sodipodi:role="line"
         id="tspan3295-2"
         x="149.99496"
         y="242.71828">C</tspan></text>
    <text
       xml:space="preserve"
       style="font-size:144px;font-style:normal;font-variant:normal;font-weight:bold;font-stretch:normal;text-align:end;line-height:125%;letter-spacing:0px;word-spacing:0px;writing-mode:lr-tb;text-anchor:end;fill:#000000;fill-opacity:1;stroke:none;font-family:Sakkal Majalla;-inkscape-font-specification:Sans Bold"
       x="534.28571"
       y="438.07648"
       id="text3339"
       sodipodi:linespacing="125%"><tspan
         sodipodi:role="line"
         id="tspan3341"
         x="534.28571"
         y="438.07648">B</tspan></text>
    <text
       xml:space="preserve"
       style="font-size:144px;font-style:normal;font-variant:normal;font-weight:bold;font-stretch:normal;text-align:end;line-height:125%;letter-spacing:0px;word-spacing:0px;writing-mode:lr-tb;text-anchor:end;fill:#000000;fill-opacity:1;stroke:none;font-family:Sakkal Majalla;-inkscape-font-specification:Sans Bold"
       x="734.28571"
       y="915.2193"
       id="text3343"
       sodipodi:linespacing="125%"><tspan
         sodipodi:role="line"
         id="tspan3345"
         x="734.28571"
         y="915.2193">K-C Kite</tspan></text>
    <g
       style="fill:#7cfc00;opacity:0.99999998999999995"
       transform="translate(-5.71429,-11.428572)"
       id="g3347">
      <path
         inkscape:connector-curvature="0"
         style="fill:#7cfc00;fill-opacity:1;stroke:#000000;stroke-width:12.49798870000000051;stroke-linecap:butt;stroke-linejoin:miter;stroke-miterlimit:4;stroke-opacity:1;stroke-dasharray:none"
         d="M 158.19472,700.20164 C 481.52053,460.24689 481.52053,460.24689 481.52053,460.24689"
         id="path3349" />
      <path
         inkscape:connector-curvature="0"
         style="fill:#7cfc00;fill-opacity:1;stroke:#000000;stroke-width:12.49798870000000051;stroke-linecap:butt;stroke-linejoin:miter;stroke-miterlimit:4;stroke-opacity:1;stroke-dasharray:none"
         d="m -103.66459,451.52883 c 4.475036,509.54403 4.475036,509.54403 4.475036,509.54403"
         id="path3351" />
      <path
         inkscape:connector-curvature="0"
         style="fill:#7cfc00;fill-opacity:1;stroke:#000000;stroke-width:13.06539345000000019px;stroke-linecap:butt;stroke-linejoin:miter;stroke-opacity:1"
         d="m 151.05129,636.86342 c -8.49614,-338.2897 -8.49614,-338.2897 -8.49614,-338.2897"
         id="path3353" />
      <path
         inkscape:connector-curvature="0"
         style="fill:#7cfc00;fill-opacity:1;stroke:#000000;stroke-width:12.49798870000000051;stroke-linecap:butt;stroke-linejoin:miter;stroke-miterlimit:4;stroke-opacity:1;stroke-dasharray:none"
         d="m 183.5782,260.31305 c 316.3321,114.9392 316.3321,114.9392 316.3321,114.9392"
         id="path3355" />
      <path
         inkscape:connector-curvature="0"
         style="fill:#7cfc00;fill-opacity:1;stroke:#000000;stroke-width:13.06539345000000019px;stroke-linecap:butt;stroke-linejoin:miter;stroke-opacity:1"
         d="M 67.28319,258.85916 C -65.72751,471.4796 -65.72751,470.00808 -65.72751,470.00808"
         id="path3357" />
      <path
         inkscape:connector-curvature="0"
         style="fill:#7cfc00;fill-opacity:1;stroke:#000000;stroke-width:12.49798870000000051;stroke-linecap:butt;stroke-linejoin:miter;stroke-miterlimit:4;stroke-opacity:1;stroke-dasharray:none"
         d="m -113.66609,-28.124111 c 4.47503,509.544021 4.47503,509.544021 4.47503,509.544021"
         id="path3359" />
      <path
         inkscape:connector-curvature="0"
         style="fill:#7cfc00;fill-opacity:1;stroke:#000000;stroke-width:13.06539345000000019px;stroke-linecap:butt;stroke-linejoin:miter;stroke-opacity:1"
         d="M 129.61069,667.17418 C -78.7844,527.63643 -78.182005,528.979 -78.182005,528.979"
         id="path3361" />
      <path
         inkscape:connector-curvature="0"
         style="fill:#7cfc00;fill-opacity:1;stroke:#000000;stroke-width:13.06539345000000019px;stroke-linecap:butt;stroke-linejoin:miter;stroke-opacity:1"
         d="M -145.57587,534.22568 C -340.61789,691.8896 -340.13832,690.49842 -340.13832,690.49842"
         id="path3363" />
      <path
         inkscape:connector-curvature="0"
         style="fill:#7cfc00;fill-opacity:1;stroke:#000000;stroke-width:13.06539345000000019px;stroke-linecap:butt;stroke-linejoin:miter;stroke-opacity:1"
         d="m -358.60908,644.36417 c -8.49614,-358.28971 -8.49614,-358.28971 -8.49614,-358.28971"
         id="path3365" />
      <path
         inkscape:connector-curvature="0"
         style="fill:#7cfc00;fill-opacity:1;stroke:#000000;stroke-width:13.06539249000000069px;stroke-linecap:butt;stroke-linejoin:miter;stroke-opacity:1"
         d="M -127.48935,454.68654 C -357.14944,252.57775 -355.36745,252.89501 -355.36745,252.89501"
         id="path3367" />
      <path
         sodipodi:type="arc"
         style="fill:#7cfc00;fill-opacity:1;stroke:#000000;stroke-width:16.02231979000000095;stroke-miterlimit:4;stroke-opacity:1;stroke-dasharray:none"
         id="path3369"
         sodipodi:cx="327.14285"
         sodipodi:cy="342.36218"
         sodipodi:rx="155.71428"
         sodipodi:ry="155.71428"
         d="m 482.85713,342.36218 c 0,85.99862 -69.71566,155.71428 -155.71428,155.71428 -85.99862,0 -155.71428,-69.71566 -155.71428,-155.71428 0,-85.99862 69.71566,-155.71428 155.71428,-155.71428 85.99862,0 155.71428,69.71566 155.71428,155.71428 z"
         transform="matrix(0.60908163,0,0,0.5963063,-299.63679,280.71682)" />
      <path
         inkscape:connector-curvature="0"
         style="fill:#7cfc00;fill-opacity:1;stroke:#000000;stroke-width:13.06539345000000019px;stroke-linecap:butt;stroke-linejoin:miter;stroke-opacity:1"
         d="M 66.271414,710.36571 C -271.9857,720.07294 -271.9857,720.07294 -271.9857,720.07294"
         id="path3371" />
      <path
         inkscape:connector-curvature="0"
         style="fill:#7cfc00;fill-opacity:1;stroke:#000000;stroke-width:13.06539345000000019px;stroke-linecap:butt;stroke-linejoin:miter;stroke-opacity:1"
         d="M -346.98719,741.02242 C -87.29852,957.9877 -87.29852,957.9877 -87.29852,957.9877"
         id="path3373" />
      <path
         sodipodi:type="arc"
         style="fill:#7cfc00;fill-opacity:1;stroke:#000000;stroke-width:21.08276748999999839;stroke-miterlimit:4;stroke-opacity:1;stroke-dasharray:none"
         id="path3375"
         sodipodi:cx="327.14285"
         sodipodi:cy="342.36218"
         sodipodi:rx="155.71428"
         sodipodi:ry="155.71428"
         d="m 482.85713,342.36218 c 0,85.99862 -69.71566,155.71428 -155.71428,155.71428 -85.99862,0 -155.71428,-69.71566 -155.71428,-155.71428 0,-85.99862 69.71566,-155.71428 155.71428,-155.71428 85.99862,0 155.71428,69.71566 155.71428,155.71428 z"
         transform="matrix(0.59912233,0,0,0.58655589,-541.50061,517.98557)" />
      <g
         style="fill:#7cfc00"
         id="g3377"
         transform="translate(37.142856,-302.85715)">
        <path
           id="path3379"
           d="m 516.28761,728.08804 c 397.21102,2.65128 397.21102,2.65128 397.21102,2.65128"
           style="fill:#7cfc00;fill-opacity:1;stroke:#000000;stroke-width:12.49798870000000051;stroke-linecap:butt;stroke-linejoin:miter;stroke-miterlimit:4;stroke-opacity:1;stroke-dasharray:none"
           inkscape:connector-curvature="0" />
        <path
           id="path3381"
           d="m 1036.7998,743.6694 c 140.2296,86.20424 140.2296,86.20424 140.2296,86.20424"
           style="fill:#7cfc00;fill-opacity:1;stroke:#000000;stroke-width:12.49798870000000051;stroke-linecap:butt;stroke-linejoin:miter;stroke-miterlimit:4;stroke-opacity:1;stroke-dasharray:none"
           inkscape:connector-curvature="0" />
        <path
           transform="matrix(0.60908163,0,0,0.5963063,273.26263,512.86095)"
           d="m 482.85713,342.36218 c 0,85.99862 -69.71566,155.71428 -155.71428,155.71428 -85.99862,0 -155.71428,-69.71566 -155.71428,-155.71428 0,-85.99862 69.71566,-155.71428 155.71428,-155.71428 85.99862,0 155.71428,69.71566 155.71428,155.71428 z"
           sodipodi:ry="155.71428"
           sodipodi:rx="155.71428"
           sodipodi:cy="342.36218"
           sodipodi:cx="327.14285"
           id="path3383"
           style="fill:#7cfc00;fill-opacity:1;stroke:#000000;stroke-width:16.02231979000000095;stroke-miterlimit:4;stroke-opacity:1;stroke-dasharray:none"
           sodipodi:type="arc" />
        <path
           transform="matrix(0.59912233,0,0,0.58655589,1051.2473,661.06121)"
           d="m 482.85713,342.36218 c 0,85.99862 -69.71566,155.71428 -155.71428,155.71428 -85.99862,0 -155.71428,-69.71566 -155.71428,-155.71428 0,-85.99862 69.71566,-155.71428 155.71428,-155.71428 85.99862,0 155.71428,69.71566 155.71428,155.71428 z"
           sodipodi:ry="155.71428"
           sodipodi:rx="155.71428"
           sodipodi:cy="342.36218"
           sodipodi:cx="327.14285"
           id="path3385"
           style="fill:#7cfc00;fill-opacity:1;stroke:#000000;stroke-width:21.08276748999999839;stroke-miterlimit:4;stroke-opacity:1;stroke-dasharray:none"
           sodipodi:type="arc" />
        <path
           transform="matrix(0.60908163,0,0,0.5963063,757.88616,522.49516)"
           d="m 482.85713,342.36218 c 0,85.99862 -69.71566,155.71428 -155.71428,155.71428 -85.99862,0 -155.71428,-69.71566 -155.71428,-155.71428 0,-85.99862 69.71566,-155.71428 155.71428,-155.71428 85.99862,0 155.71428,69.71566 155.71428,155.71428 z"
           sodipodi:ry="155.71428"
           sodipodi:rx="155.71428"
           sodipodi:cy="342.36218"
           sodipodi:cx="327.14285"
           id="path3387"
           style="fill:#7cfc00;fill-opacity:1;stroke:#000000;stroke-width:16.02231979000000095;stroke-miterlimit:4;stroke-opacity:1;stroke-dasharray:none"
           sodipodi:type="arc" />
      </g>
      <path
         inkscape:connector-curvature="0"
         style="fill:#7cfc00;fill-opacity:1;stroke:#000000;stroke-width:13.06539345000000019px;stroke-linecap:butt;stroke-linejoin:miter;stroke-opacity:1"
         d="M 138.41576,755.30815 C -121.27291,972.27339 -121.27291,972.27339 -121.27291,972.27339"
         id="path3389" />
      <path
         sodipodi:type="arc"
         style="fill:#7cfc00;fill-opacity:1;stroke:#000000;stroke-width:16.02231979000000095;stroke-miterlimit:4;stroke-opacity:1;stroke-dasharray:none"
         id="path3391"
         sodipodi:cx="327.14285"
         sodipodi:cy="342.36218"
         sodipodi:rx="155.71428"
         sodipodi:ry="155.71428"
         d="m 482.85713,342.36218 c 0,85.99862 -69.71566,155.71428 -155.71428,155.71428 -85.99862,0 -155.71428,-69.71566 -155.71428,-155.71428 0,-85.99862 69.71566,-155.71428 155.71428,-155.71428 85.99862,0 155.71428,69.71566 155.71428,155.71428 z"
         transform="matrix(0.58916317,0,0,0.57680575,-47.026239,517.74284)" />
      <path
         sodipodi:type="arc"
         style="fill:#7cfc00;fill-opacity:1;stroke:#000000;stroke-width:16.02231979000000095;stroke-miterlimit:4;stroke-opacity:1;stroke-dasharray:none"
         id="path3393"
         sodipodi:cx="327.14285"
         sodipodi:cy="342.36218"
         sodipodi:rx="155.71428"
         sodipodi:ry="155.71428"
         d="m 482.85713,342.36218 c 0,85.99862 -69.71566,155.71428 -155.71428,155.71428 -85.99862,0 -155.71428,-69.71566 -155.71428,-155.71428 0,-85.99862 69.71566,-155.71428 155.71428,-155.71428 85.99862,0 155.71428,69.71566 155.71428,155.71428 z"
         transform="matrix(0.58916317,0,0,0.57680575,-284.16909,720.59999)" />
      <path
         inkscape:connector-curvature="0"
         style="fill:#7cfc00;fill-opacity:1;stroke:#000000;stroke-width:13.06539345000000019px;stroke-linecap:butt;stroke-linejoin:miter;stroke-opacity:1"
         d="M 44.872971,221.5015 C -293.38414,211.79427 -293.38414,211.79427 -293.38414,211.79427"
         id="path3395" />
      <path
         inkscape:connector-curvature="0"
         style="fill:#7cfc00;fill-opacity:1;stroke:#000000;stroke-width:13.06539345000000019px;stroke-linecap:butt;stroke-linejoin:miter;stroke-opacity:1"
         d="M -368.38564,190.84479 C -108.69696,-26.120486 -108.69696,-26.120486 -108.69696,-26.120486"
         id="path3397" />
      <path
         sodipodi:type="arc"
         style="fill:#7cfc00;fill-opacity:1;stroke:#000000;stroke-width:21.08276748999999839;stroke-miterlimit:4;stroke-opacity:1;stroke-dasharray:none"
         id="path3399"
         sodipodi:cx="327.14285"
         sodipodi:cy="342.36218"
         sodipodi:rx="155.71428"
         sodipodi:ry="155.71428"
         d="m 482.85713,342.36218 c 0,85.99862 -69.71566,155.71428 -155.71428,155.71428 -85.99862,0 -155.71428,-69.71566 -155.71428,-155.71428 0,-85.99862 69.71566,-155.71428 155.71428,-155.71428 85.99862,0 155.71428,69.71566 155.71428,155.71428 z"
         transform="matrix(0.59912233,0,0,-0.58655589,-560.04192,431.0245)" />
      <path
         inkscape:connector-curvature="0"
         style="fill:#7cfc00;fill-opacity:1;stroke:#000000;stroke-width:13.06539345000000019px;stroke-linecap:butt;stroke-linejoin:miter;stroke-opacity:1"
         d="M 117.01732,176.55906 C -142.67135,-40.406176 -142.67135,-40.406176 -142.67135,-40.406176"
         id="path3401" />
      <path
         sodipodi:type="arc"
         style="fill:#7cfc00;fill-opacity:1;stroke:#000000;stroke-width:16.02231979000000095;stroke-miterlimit:4;stroke-opacity:1;stroke-dasharray:none"
         id="path3403"
         sodipodi:cx="327.14285"
         sodipodi:cy="342.36218"
         sodipodi:rx="155.71428"
         sodipodi:ry="155.71428"
         d="m 482.85713,342.36218 c 0,85.99862 -69.71566,155.71428 -155.71428,155.71428 -85.99862,0 -155.71428,-69.71566 -155.71428,-155.71428 0,-85.99862 69.71566,-155.71428 155.71428,-155.71428 85.99862,0 155.71428,69.71566 155.71428,155.71428 z"
         transform="matrix(0.58916317,0,0,-0.57680575,-68.424679,414.12437)" />
      <path
         sodipodi:type="arc"
         style="fill:#7cfc00;fill-opacity:1;stroke:#000000;stroke-width:16.02231979000000095;stroke-miterlimit:4;stroke-opacity:1;stroke-dasharray:none"
         id="path3405"
         sodipodi:cx="327.14285"
         sodipodi:cy="342.36218"
         sodipodi:rx="155.71428"
         sodipodi:ry="155.71428"
         d="m 482.85713,342.36218 c 0,85.99862 -69.71566,155.71428 -155.71428,155.71428 -85.99862,0 -155.71428,-69.71566 -155.71428,-155.71428 0,-85.99862 69.71566,-155.71428 155.71428,-155.71428 85.99862,0 155.71428,69.71566 155.71428,155.71428 z"
         transform="matrix(0.58916317,0,0,-0.57680575,-305.56753,211.26722)" />
    </g>
    <text
       sodipodi:linespacing="125%"
       id="text3407"
       y="512.36218"
       x="-60.000004"
       style="font-size:144px;font-style:normal;font-variant:normal;font-weight:bold;font-stretch:normal;text-align:end;line-height:125%;letter-spacing:0px;word-spacing:0px;writing-mode:lr-tb;text-anchor:end;fill:#000000;fill-opacity:1;stroke:none;font-family:Sakkal Majalla;-inkscape-font-specification:Sans Bold"
       xml:space="preserve"><tspan
         y="512.36218"
         x="-60.000004"
         id="tspan3409"
         sodipodi:role="line">D</tspan></text>
    <text
       sodipodi:linespacing="125%"
       id="text3411"
       y="742.71814"
       x="169.99495"
       style="font-size:144px;font-style:normal;font-variant:normal;font-weight:bold;font-stretch:normal;text-align:end;line-height:125%;letter-spacing:0px;word-spacing:0px;writing-mode:lr-tb;text-anchor:end;fill:#000000;fill-opacity:1;stroke:none;font-family:Sakkal Majalla;-inkscape-font-specification:Sans Bold"
       xml:space="preserve"><tspan
         y="742.71814"
         x="169.99495"
         id="tspan3413"
         sodipodi:role="line">C</tspan></text>
    <text
       sodipodi:linespacing="125%"
       id="text3415"
       y="242.71828"
       x="149.99496"
       style="font-size:144px;font-style:normal;font-variant:normal;font-weight:bold;font-stretch:normal;text-align:end;line-height:125%;letter-spacing:0px;word-spacing:0px;writing-mode:lr-tb;text-anchor:end;fill:#000000;fill-opacity:1;stroke:none;font-family:Sakkal Majalla;-inkscape-font-specification:Sans Bold"
       xml:space="preserve"><tspan
         y="242.71828"
         x="149.99496"
         id="tspan3417"
         sodipodi:role="line">C</tspan></text>
    <text
       sodipodi:linespacing="125%"
       id="text3419"
       y="438.07648"
       x="534.28571"
       style="font-size:144px;font-style:normal;font-variant:normal;font-weight:bold;font-stretch:normal;text-align:end;line-height:125%;letter-spacing:0px;word-spacing:0px;writing-mode:lr-tb;text-anchor:end;fill:#000000;fill-opacity:1;stroke:none;font-family:Sakkal Majalla;-inkscape-font-specification:Sans Bold"
       xml:space="preserve"><tspan
         y="438.07648"
         x="534.28571"
         id="tspan3421"
         sodipodi:role="line">B</tspan></text>
    <text
       sodipodi:linespacing="125%"
       id="text3423"
       y="915.2193"
       x="734.28571"
       style="font-size:144px;font-style:normal;font-variant:normal;font-weight:bold;font-stretch:normal;text-align:end;line-height:125%;letter-spacing:0px;word-spacing:0px;writing-mode:lr-tb;text-anchor:end;fill:#000000;fill-opacity:1;stroke:none;font-family:Sakkal Majalla;-inkscape-font-specification:Sans Bold"
       xml:space="preserve"><tspan
         y="915.2193"
         x="734.28571"
         id="tspan3425"
         sodipodi:role="line">K-C Kite</tspan></text>
  </g>
</svg>
