<?xml version="1.0" encoding="UTF-8" standalone="no"?>
<!-- Generator: Adobe Illustrator 13.0.0, SVG Export Plug-In . SVG Version: 6.00 Build 14948)  -->

<svg
   xmlns:dc="http://purl.org/dc/elements/1.1/"
   xmlns:cc="http://creativecommons.org/ns#"
   xmlns:rdf="http://www.w3.org/1999/02/22-rdf-syntax-ns#"
   xmlns:svg="http://www.w3.org/2000/svg"
   xmlns="http://www.w3.org/2000/svg"
   xmlns:sodipodi="http://sodipodi.sourceforge.net/DTD/sodipodi-0.dtd"
   xmlns:inkscape="http://www.inkscape.org/namespaces/inkscape"
   version="1.1"
   id="socialnewtworking_xA0_Image_1_"
   x="0px"
   y="0px"
   width="800px"
   height="800px"
   viewBox="0 0 800 800"
   enable-background="new 0 0 800 800"
   xml:space="preserve"
   inkscape:version="0.48.3.1 r9886"
   sodipodi:docname="swt.svg"><metadata
   id="metadata6550"><rdf:RDF><cc:Work
       rdf:about=""><dc:format>image/svg+xml</dc:format><dc:type
         rdf:resource="http://purl.org/dc/dcmitype/StillImage" /><dc:title></dc:title></cc:Work></rdf:RDF></metadata><defs
   id="defs6548" /><sodipodi:namedview
   pagecolor="#ffffff"
   bordercolor="#666666"
   borderopacity="1"
   objecttolerance="10"
   gridtolerance="10"
   guidetolerance="10"
   inkscape:pageopacity="0"
   inkscape:pageshadow="2"
   inkscape:window-width="1366"
   inkscape:window-height="715"
   id="namedview6546"
   showgrid="false"
   inkscape:zoom="0.55419332"
   inkscape:cx="446.65866"
   inkscape:cy="400"
   inkscape:window-x="0"
   inkscape:window-y="31"
   inkscape:window-maximized="1"
   inkscape:current-layer="socialnewtworking_xA0_Image_1_" />

<path
   sodipodi:type="arc"
   style="fill:#ffa500;fill-opacity:1;fill-rule:nonzero;stroke:none"
   id="path6571"
   sodipodi:cx="216.66667"
   sodipodi:cy="-146.66667"
   sodipodi:rx="236.66667"
   sodipodi:ry="200"
   d="m 453.33334,-146.66667 a 236.66667,200 0 1 1 -473.33334,0 236.66667,200 0 1 1 473.33334,0 z"
   transform="matrix(0.73943663,0,0,0.86666667,30.229146,317.81348)" /><path
   style="fill:none;stroke:#000000;stroke-width:6;stroke-linecap:butt;stroke-linejoin:miter;stroke-opacity:1"
   d="m 230.04007,122.94792 c -31.67393,0.49241 -67.06561,-0.0564 -99.19524,4.39466"
   id="path7477-02"
   inkscape:connector-curvature="0" /><path
   style="fill:none;stroke:#000000;stroke-width:6;stroke-linecap:butt;stroke-linejoin:miter;stroke-opacity:1"
   d="m 114.12675,136.86794 c -0.0445,31.67772 -1.19302,67.05502 2.71284,99.25548"
   id="path7477-90"
   inkscape:connector-curvature="0" /><path
   style="fill:none;stroke:#000000;stroke-width:8;stroke-linecap:butt;stroke-linejoin:miter;stroke-opacity:1"
   d="M 97.438922,139.58064 C 26.962925,109.41027 16.557799,101.29824 -45.110613,60.185962"
   id="path7768"
   inkscape:connector-curvature="0"
   sodipodi:nodetypes="cc" /><path
   transform="translate(108.26547,-63.154858)"
   sodipodi:type="arc"
   style="fill:#f8f8ff;fill-opacity:1;fill-rule:nonzero;stroke:#000000;stroke-width:4;stroke-opacity:1"
   id="path6598-7"
   sodipodi:cx="1.8044245"
   sodipodi:cy="199.12665"
   sodipodi:rx="37.892914"
   sodipodi:ry="37.892914"
   d="m 39.697338,199.12665 a 37.892914,37.892914 0 1 1 -75.785827,0 37.892914,37.892914 0 1 1 75.785827,0 z" /><path
   style="fill:none;stroke:#000000;stroke-width:6;stroke-linecap:butt;stroke-linejoin:miter;stroke-opacity:1"
   d="m 256.38052,123.74885 c 4.46054,31.36214 8.35434,66.54324 16.79943,97.86106"
   id="path7477-60"
   inkscape:connector-curvature="0"
   inkscape:transform-center-x="-13.965233"
   inkscape:transform-center-y="-62.535767" /><path
   style="fill:none;stroke:#000000;stroke-width:6;stroke-linecap:butt;stroke-linejoin:miter;stroke-opacity:1"
   d="m 257.69338,137.30556 c -47.3633,32.48807 -101.38425,67.30505 -145.47975,105.59793"
   id="path7477-900"
   inkscape:connector-curvature="0" /><path
   sodipodi:type="arc"
   style="fill:#ffa500;fill-opacity:1;fill-rule:nonzero;stroke:none"
   id="path6571-1"
   sodipodi:cx="216.66667"
   sodipodi:cy="-146.66667"
   sodipodi:rx="236.66667"
   sodipodi:ry="200"
   d="m 453.33334,-146.66667 a 236.66667,200 0 1 1 -473.33334,0 236.66667,200 0 1 1 473.33334,0 z"
   transform="matrix(0.73943663,0,0,0.86666667,454.85663,315.58221)" /><path
   style="fill:none;stroke:#000000;stroke-width:8;stroke-linecap:butt;stroke-linejoin:miter;stroke-opacity:1"
   d="m 254.42385,112.51427 c 120.27357,2.8084 208.30661,24.18569 265.2504,119.09202"
   id="path7772"
   inkscape:connector-curvature="0" /><path
   transform="translate(254.42386,-72.176976)"
   sodipodi:type="arc"
   style="fill:#f8f8ff;fill-opacity:1;fill-rule:nonzero;stroke:#000000;stroke-width:4;stroke-opacity:1"
   id="path6598-6"
   sodipodi:cx="1.8044245"
   sodipodi:cy="199.12665"
   sodipodi:rx="37.892914"
   sodipodi:ry="37.892914"
   d="m 39.697338,199.12665 a 37.892914,37.892914 0 1 1 -75.785827,0 37.892914,37.892914 0 1 1 75.785827,0 z" /><path
   style="fill:none;stroke:#000000;stroke-width:6;stroke-linecap:butt;stroke-linejoin:miter;stroke-opacity:1"
   d="m 631.5486,191.90896 c -30.2204,9.49796 -64.301,19.05732 -93.8301,32.47964"
   id="path7477-0"
   inkscape:connector-curvature="0" /><path
   style="fill:none;stroke:#000000;stroke-width:6;stroke-linecap:butt;stroke-linejoin:miter;stroke-opacity:1"
   d="m 523.24708,239.21801 c 3.72628,-31.45782 6.79668,-66.72033 14.50744,-98.22698"
   id="path7477-85"
   inkscape:connector-curvature="0" /><path
   style="fill:none;stroke:#000000;stroke-width:6;stroke-linecap:butt;stroke-linejoin:miter;stroke-opacity:1"
   d="m 633.35295,282.13017 c -30.2203,-9.49796 -64.3009,-19.05732 -93.83,-32.47964"
   id="path7477-6"
   inkscape:connector-curvature="0" /><path
   sodipodi:type="arc"
   style="fill:#f8f8ff;fill-opacity:1;fill-rule:nonzero;stroke:#000000;stroke-width:4;stroke-opacity:1"
   id="path6598"
   sodipodi:cx="1.8044245"
   sodipodi:cy="199.12665"
   sodipodi:rx="37.892914"
   sodipodi:ry="37.892914"
   d="m 39.697338,199.12665 a 37.892914,37.892914 0 1 1 -75.785827,0 37.892914,37.892914 0 1 1 75.785827,0 z"
   transform="translate(530.5008,37.892914)" /><path
   style="fill:none;stroke:#000000;stroke-width:6;stroke-linecap:butt;stroke-linejoin:miter;stroke-opacity:1"
   d="m 673.01119,89.741207 c 15.54193,38.205083 33.55559,80.246403 46.99329,121.331933"
   id="path7477-7"
   inkscape:connector-curvature="0" /><path
   style="fill:none;stroke:#000000;stroke-width:6;stroke-linecap:butt;stroke-linejoin:miter;stroke-opacity:1"
   d="m 647.57811,180.1792 c -0.1073,-31.67753 0.8718,-67.05997 -3.1883,-99.241363"
   id="path7477-15"
   inkscape:connector-curvature="0" /><path
   style="fill:none;stroke:#000000;stroke-width:6;stroke-linecap:butt;stroke-linejoin:miter;stroke-opacity:1"
   d="m 645.98398,94.470027 c -30.2204,9.497963 -64.301,19.057323 -93.83008,32.479643"
   id="path7477-34"
   inkscape:connector-curvature="0" /><path
   style="fill:none;stroke:#000000;stroke-width:6;stroke-linecap:butt;stroke-linejoin:miter;stroke-opacity:1"
   d="m 539.22467,128.21219 c 24.97029,19.49262 52.1819,42.12896 79.99116,58.8254"
   id="path7477-2"
   inkscape:connector-curvature="0" /><path
   transform="translate(651.39726,-113.67874)"
   sodipodi:type="arc"
   style="fill:#f8f8ff;fill-opacity:1;fill-rule:nonzero;stroke:#000000;stroke-width:4;stroke-opacity:1"
   id="path6598-79"
   sodipodi:cx="1.8044245"
   sodipodi:cy="199.12665"
   sodipodi:rx="37.892914"
   sodipodi:ry="37.892914"
   d="m 39.697338,199.12665 a 37.892914,37.892914 0 1 1 -75.785827,0 37.892914,37.892914 0 1 1 75.785827,0 z" /><path
   style="fill:none;stroke:#000000;stroke-width:6;stroke-linecap:butt;stroke-linejoin:miter;stroke-opacity:1"
   d="m 718.90227,218.42118 c -27.6739,-15.41523 -58.0466,-33.59157 -88.095,-45.80676"
   id="path7477-33"
   inkscape:connector-curvature="0" /><path
   style="fill:none;stroke:#000000;stroke-width:6;stroke-linecap:butt;stroke-linejoin:miter;stroke-opacity:1"
   d="m 646.40467,280.57512 c 22.11617,-22.67935 46.02962,-48.77575 71.33558,-69.06686"
   id="path7477-47"
   inkscape:connector-curvature="0" /><path
   style="fill:none;stroke:#000000;stroke-width:8;stroke-linecap:butt;stroke-linejoin:miter;stroke-opacity:1"
   d="m 728.98749,200.93107 c 52.05518,21.75192 92.87431,65.91388 126.30972,113.67874"
   id="path7774"
   inkscape:connector-curvature="0"
   sodipodi:nodetypes="cc" /><path
   transform="translate(718.16095,10.826546)"
   sodipodi:type="arc"
   style="fill:#f8f8ff;fill-opacity:1;fill-rule:nonzero;stroke:#000000;stroke-width:4;stroke-opacity:1"
   id="path6598-5"
   sodipodi:cx="1.8044245"
   sodipodi:cy="199.12665"
   sodipodi:rx="37.892914"
   sodipodi:ry="37.892914"
   d="m 39.697338,199.12665 a 37.892914,37.892914 0 1 1 -75.785827,0 37.892914,37.892914 0 1 1 75.785827,0 z" /><path
   sodipodi:type="arc"
   style="fill:#ffa500;fill-opacity:1;fill-rule:nonzero;stroke:none"
   id="path6571-7"
   sodipodi:cx="216.66667"
   sodipodi:cy="-146.66667"
   sodipodi:rx="236.66667"
   sodipodi:ry="200"
   d="m 453.33334,-146.66667 a 236.66667,200 0 1 1 -473.33334,0 236.66667,200 0 1 1 473.33334,0 z"
   transform="matrix(0.73943663,0,0,0.86666667,232.07428,700.59578)" /><path
   style="fill:none;stroke:#000000;stroke-width:8;stroke-linecap:butt;stroke-linejoin:miter;stroke-opacity:1"
   d="M 431.25745,471.59474 C 495.53526,405.00793 564.88798,336.73205 635.15742,287.54345"
   id="path7762"
   inkscape:connector-curvature="0" /><path
   transform="translate(631.54857,83.003517)"
   sodipodi:type="arc"
   style="fill:#f8f8ff;fill-opacity:1;fill-rule:nonzero;stroke:#000000;stroke-width:4;stroke-opacity:1"
   id="path6598-3"
   sodipodi:cx="1.8044245"
   sodipodi:cy="199.12665"
   sodipodi:rx="37.892914"
   sodipodi:ry="37.892914"
   d="m 39.697338,199.12665 a 37.892914,37.892914 0 1 1 -75.785827,0 37.892914,37.892914 0 1 1 75.785827,0 z" /><path
   transform="translate(535.91403,-59.546008)"
   sodipodi:type="arc"
   style="fill:#f8f8ff;fill-opacity:1;fill-rule:nonzero;stroke:#000000;stroke-width:4;stroke-opacity:1"
   id="path6598-4"
   sodipodi:cx="1.8044245"
   sodipodi:cy="199.12665"
   sodipodi:rx="37.892914"
   sodipodi:ry="37.892914"
   d="m 39.697338,199.12665 a 37.892914,37.892914 0 1 1 -75.785827,0 37.892914,37.892914 0 1 1 75.785827,0 z" /><path
   transform="translate(627.93968,-19.848672)"
   sodipodi:type="arc"
   style="fill:#f8f8ff;fill-opacity:1;fill-rule:nonzero;stroke:#000000;stroke-width:4;stroke-opacity:1"
   id="path6598-95"
   sodipodi:cx="1.8044245"
   sodipodi:cy="199.12665"
   sodipodi:rx="37.892914"
   sodipodi:ry="37.892914"
   d="m 39.697338,199.12665 a 37.892914,37.892914 0 1 1 -75.785827,0 37.892914,37.892914 0 1 1 75.785827,0 z" /><path
   style="fill:none;stroke:#000000;stroke-width:6;stroke-linecap:butt;stroke-linejoin:miter;stroke-opacity:1"
   d="m 483.99623,579.46566 c -19.4106,25.03415 -41.95746,52.31988 -58.56253,80.18378"
   id="path7477-8"
   inkscape:connector-curvature="0" /><path
   style="fill:none;stroke:#000000;stroke-width:8;stroke-linecap:butt;stroke-linejoin:miter;stroke-opacity:1"
   d="m 427.6486,673.69029 c -1.84664,56.71465 17.99524,89.24542 45.11061,129.91856"
   id="path7770"
   inkscape:connector-curvature="0"
   sodipodi:nodetypes="cc" /><path
   style="fill:none;stroke:#000000;stroke-width:6;stroke-linecap:butt;stroke-linejoin:miter;stroke-opacity:1"
   d="M 332.01394,537.19659 C 360.873,583.07404 391.0947,635.26592 427.6489,678.461"
   id="path7477-1"
   inkscape:connector-curvature="0" /><path
   style="fill:none;stroke:#000000;stroke-width:8;stroke-linecap:butt;stroke-linejoin:miter;stroke-opacity:1"
   d="m 120.89644,246.04168 c 119.98204,48.82398 110.52871,223.45304 205.70439,286.9035"
   id="path7758"
   inkscape:connector-curvature="0" /><path
   transform="translate(431.25749,465.54151)"
   sodipodi:type="arc"
   style="fill:#f8f8ff;fill-opacity:1;fill-rule:nonzero;stroke:#000000;stroke-width:4;stroke-opacity:1"
   id="path6598-59"
   sodipodi:cx="1.8044245"
   sodipodi:cy="199.12665"
   sodipodi:rx="37.892914"
   sodipodi:ry="37.892914"
   d="m 39.697338,199.12665 a 37.892914,37.892914 0 1 1 -75.785827,0 37.892914,37.892914 0 1 1 75.785827,0 z" /><path
   style="fill:none;stroke:#000000;stroke-width:6;stroke-linecap:butt;stroke-linejoin:miter;stroke-opacity:1"
   d="m 404.0233,493.85059 c 24.8596,19.63366 53.30477,40.6989 76.12139,63.75378"
   id="path7477-9"
   inkscape:connector-curvature="0" /><path
   style="fill:none;stroke:#000000;stroke-width:6.00000048;stroke-linecap:butt;stroke-linejoin:miter;stroke-opacity:1"
   d="M 494.55136,577.52832 C 433.0288,559.66807 364.54572,537.91569 301.19981,526.25499"
   id="path7477-16"
   inkscape:connector-curvature="0" /><path
   transform="translate(472.75921,368.10259)"
   sodipodi:type="arc"
   style="fill:#f8f8ff;fill-opacity:1;fill-rule:nonzero;stroke:#000000;stroke-width:4;stroke-opacity:1"
   id="path6598-2"
   sodipodi:cx="1.8044245"
   sodipodi:cy="199.12665"
   sodipodi:rx="37.892914"
   sodipodi:ry="37.892914"
   d="m 39.697338,199.12665 a 37.892914,37.892914 0 1 1 -75.785827,0 37.892914,37.892914 0 1 1 75.785827,0 z" /><path
   style="fill:none;stroke:#000000;stroke-width:6;stroke-linecap:butt;stroke-linejoin:miter;stroke-opacity:1"
   d="m 413.2132,486.03014 c -30.22034,9.49796 -64.30099,19.05732 -93.83007,32.47964"
   id="path7477"
   inkscape:connector-curvature="0" /><path
   style="fill:none;stroke:#000000;stroke-width:6;stroke-linecap:butt;stroke-linejoin:miter;stroke-opacity:1"
   d="m 415.32946,495.07337 c -31.55569,49.1948 -68.49933,103.05574 -94.45371,156.94279"
   id="path7477-4"
   inkscape:connector-curvature="0" /><path
   style="fill:none;stroke:#000000;stroke-width:6;stroke-linecap:butt;stroke-linejoin:miter;stroke-opacity:1"
   d="m 322.48118,543.57995 c -6.325,31.03983 -14.4659,65.48693 -17.0227,97.82246"
   id="path7477-3"
   inkscape:connector-curvature="0" /><path
   style="fill:none;stroke:#000000;stroke-width:8;stroke-linecap:butt;stroke-linejoin:miter;stroke-opacity:1"
   d="m 290.51235,644.81949 c -39.24521,23.47305 -118.18194,42.55304 -155.18051,48.71947"
   id="path7821"
   inkscape:connector-curvature="0"
   sodipodi:nodetypes="cc" /><path
   transform="translate(306.75219,442.08399)"
   sodipodi:type="arc"
   style="fill:#f8f8ff;fill-opacity:1;fill-rule:nonzero;stroke:#000000;stroke-width:4;stroke-opacity:1"
   id="path6598-34"
   sodipodi:cx="1.8044245"
   sodipodi:cy="199.12665"
   sodipodi:rx="37.892914"
   sodipodi:ry="37.892914"
   d="m 39.697338,199.12665 a 37.892914,37.892914 0 1 1 -75.785827,0 37.892914,37.892914 0 1 1 75.785827,0 z" /><path
   transform="translate(317.57871,330.20967)"
   sodipodi:type="arc"
   style="fill:#f8f8ff;fill-opacity:1;fill-rule:nonzero;stroke:#000000;stroke-width:4;stroke-opacity:1"
   id="path6598-22"
   sodipodi:cx="1.8044245"
   sodipodi:cy="199.12665"
   sodipodi:rx="37.892914"
   sodipodi:ry="37.892914"
   d="m 39.697338,199.12665 a 37.892914,37.892914 0 1 1 -75.785827,0 37.892914,37.892914 0 1 1 75.785827,0 z" /><path
   transform="translate(409.60435,281.49021)"
   sodipodi:type="arc"
   style="fill:#f8f8ff;fill-opacity:1;fill-rule:nonzero;stroke:#000000;stroke-width:4;stroke-opacity:1"
   id="path6598-93"
   sodipodi:cx="1.8044245"
   sodipodi:cy="199.12665"
   sodipodi:rx="37.892914"
   sodipodi:ry="37.892914"
   d="m 39.697338,199.12665 a 37.892914,37.892914 0 1 1 -75.785827,0 37.892914,37.892914 0 1 1 75.785827,0 z" /><path
   style="fill:none;stroke:#000000;stroke-width:6;stroke-linecap:butt;stroke-linejoin:miter;stroke-opacity:1"
   d="m 234.57519,226.19302 c -30.22034,9.49796 -64.30099,19.05732 -93.83007,32.47964"
   id="path7477-67"
   inkscape:connector-curvature="0" /><path
   transform="translate(120.89644,50.523888)"
   sodipodi:type="arc"
   style="fill:#f8f8ff;fill-opacity:1;fill-rule:nonzero;stroke:#000000;stroke-width:4;stroke-opacity:1"
   id="path6598-9"
   sodipodi:cx="1.8044245"
   sodipodi:cy="199.12665"
   sodipodi:rx="37.892914"
   sodipodi:ry="37.892914"
   d="m 39.697338,199.12665 a 37.892914,37.892914 0 1 1 -75.785827,0 37.892914,37.892914 0 1 1 75.785827,0 z" /><path
   transform="translate(261.64155,28.870788)"
   sodipodi:type="arc"
   style="fill:#f8f8ff;fill-opacity:1;fill-rule:nonzero;stroke:#000000;stroke-width:4;stroke-opacity:1"
   id="path6598-0"
   sodipodi:cx="1.8044245"
   sodipodi:cy="199.12665"
   sodipodi:rx="37.892914"
   sodipodi:ry="37.892914"
   d="m 39.697338,199.12665 a 37.892914,37.892914 0 1 1 -75.785827,0 37.892914,37.892914 0 1 1 75.785827,0 z" /></svg>