<?xml version="1.0" encoding="UTF-8" standalone="no"?>
<!-- Created with Inkscape (http://www.inkscape.org/) -->

<svg
   xmlns:dc="http://purl.org/dc/elements/1.1/"
   xmlns:cc="http://creativecommons.org/ns#"
   xmlns:rdf="http://www.w3.org/1999/02/22-rdf-syntax-ns#"
   xmlns:svg="http://www.w3.org/2000/svg"
   xmlns="http://www.w3.org/2000/svg"
   xmlns:sodipodi="http://sodipodi.sourceforge.net/DTD/sodipodi-0.dtd"
   xmlns:inkscape="http://www.inkscape.org/namespaces/inkscape"
   id="svg3321"
   version="1.1"
   inkscape:version="0.48.3.1 r9886"
   width="765"
   height="990"
   xml:space="preserve"
   sodipodi:docname="BT.eps"><metadata
     id="metadata3327"><rdf:RDF><cc:Work
         rdf:about=""><dc:format>image/svg+xml</dc:format><dc:type
           rdf:resource="http://purl.org/dc/dcmitype/StillImage" /><dc:title></dc:title></cc:Work></rdf:RDF></metadata><defs
     id="defs3325"><clipPath
   clipPathUnits="userSpaceOnUse"
   id="clipPath3339"><path
     d="m 300,2775 3400,0 0,-2550 -3400,0 0,2550 z"
     id="path3341" /></clipPath><clipPath
   clipPathUnits="userSpaceOnUse"
   id="clipPath3747"><path
     d="m 300,2775 3400,0 0,-2550 -3400,0 0,2550 z"
     id="path3749" /></clipPath><clipPath
   clipPathUnits="userSpaceOnUse"
   id="clipPath4069"><rect
     style="opacity:0.57960014;fill:#00bfff;fill-opacity:1;fill-rule:nonzero;stroke:none"
     id="rect4071"
     width="329.29355"
     height="233.56868"
     x="88.066872"
     y="-294.83258"
     transform="scale(1,-1)" /></clipPath><clipPath
   clipPathUnits="userSpaceOnUse"
   id="clipPath4073"><rect
     style="opacity:0.57960014;fill:#00bfff;fill-opacity:1;fill-rule:nonzero;stroke:none"
     id="rect4075"
     width="329.29355"
     height="233.56868"
     x="88.066872"
     y="-294.83258"
     transform="scale(1,-1)" /></clipPath><clipPath
   clipPathUnits="userSpaceOnUse"
   id="clipPath4905"><path
     inkscape:connector-curvature="0"
     id="path4907"
     style="fill:#ffffff;fill-opacity:1;fill-rule:nonzero;stroke:none"
     d="m 91.810911,58.054949 339.999999,0 0,255.000001 -339.999999,0 0,-255.000001 z"
     clip-path="url(#clipPath4073)"
     transform="translate(-89.687808,21.332969)" /></clipPath>

<clipPath
   clipPathUnits="userSpaceOnUse"
   id="clipPath3098"><rect
     style="opacity:0.57960014;fill:#dcdcdc;fill-opacity:1;fill-rule:nonzero;stroke:none"
     id="rect3100"
     width="331.66669"
     height="221.66664"
     x="615"
     y="-444.16666"
     transform="scale(1,-1)" /></clipPath><clipPath
   clipPathUnits="userSpaceOnUse"
   id="clipPath3102"><rect
     style="opacity:0.57960014;fill:#dcdcdc;fill-opacity:1;fill-rule:nonzero;stroke:none"
     id="rect3104"
     width="331.66669"
     height="221.66664"
     x="615"
     y="-444.16666"
     transform="scale(1,-1)" /></clipPath><clipPath
   clipPathUnits="userSpaceOnUse"
   id="clipPath3106"><rect
     style="opacity:0.57960014;fill:#dcdcdc;fill-opacity:1;fill-rule:nonzero;stroke:none"
     id="rect3108"
     width="331.66669"
     height="221.66664"
     x="615"
     y="-444.16666"
     transform="scale(1,-1)" /></clipPath><clipPath
   clipPathUnits="userSpaceOnUse"
   id="clipPath3110"><rect
     style="opacity:0.57960014;fill:#dcdcdc;fill-opacity:1;fill-rule:nonzero;stroke:none"
     id="rect3112"
     width="331.66669"
     height="221.66664"
     x="615"
     y="-444.16666"
     transform="scale(1,-1)" /></clipPath><clipPath
   clipPathUnits="userSpaceOnUse"
   id="clipPath3114"><rect
     style="opacity:0.57960014;fill:#dcdcdc;fill-opacity:1;fill-rule:nonzero;stroke:none"
     id="rect3116"
     width="331.66669"
     height="221.66664"
     x="615"
     y="-444.16666"
     transform="scale(1,-1)" /></clipPath><clipPath
   clipPathUnits="userSpaceOnUse"
   id="clipPath3118"><rect
     style="opacity:0.57960014;fill:#dcdcdc;fill-opacity:1;fill-rule:nonzero;stroke:none"
     id="rect3120"
     width="331.66669"
     height="221.66664"
     x="615"
     y="-444.16666"
     transform="scale(1,-1)" /></clipPath></defs><sodipodi:namedview
     pagecolor="#ffffff"
     bordercolor="#666666"
     borderopacity="1"
     objecttolerance="10"
     gridtolerance="10"
     guidetolerance="10"
     inkscape:pageopacity="0"
     inkscape:pageshadow="2"
     inkscape:window-width="1366"
     inkscape:window-height="715"
     id="namedview3323"
     showgrid="false"
     inkscape:zoom="0.96"
     inkscape:cx="965.9375"
     inkscape:cy="411.75512"
     inkscape:window-x="0"
     inkscape:window-y="31"
     inkscape:window-maximized="1"
     inkscape:current-layer="g3329" /><g
     id="g3329"
     inkscape:groupmode="layer"
     inkscape:label="ink_ext_XXXXXX"
     transform="matrix(1.25,0,0,-1.25,0,990)"><path
       style="fill:#adff2f;fill-opacity:1;fill-rule:nonzero;stroke:#000000;stroke-opacity:1"
       d="m 633.22955,217.06762 c 0.68479,0.68478 1.01595,0.76163 1.17866,0.2735 0.29911,-0.89734 6.78986,-0.91632 7.68371,-0.0225 0.51053,0.51053 0.6564,0.49859 0.6564,-0.0537 0,-0.54636 0.78831,-0.6237 3.41875,-0.33541 9.72454,1.06584 16.06109,3.5448 21.18374,8.28747 4.21243,3.89997 6.53142,7.095 10.10883,13.92756 l 2.89482,5.52891 -6.27409,9.92564 c -7.81788,12.36794 -10.81437,16.42783 -14.95275,20.25924 -4.5867,4.24648 -8.06909,5.1048 -12.33422,3.04008 -4.89021,-2.36731 -10.22301,-9.11655 -21.5487,-27.27225 -11.92481,-19.11612 -20.16703,-27.39491 -31.45278,-31.59223 -1.80511,-0.67134 -2.97434,-1.23346 -2.59829,-1.24914 0.37607,-0.0157 0.68375,-0.39772 0.68375,-0.849 0,-0.65119 0.79012,-0.82049 3.829,-0.82049 3.27536,0 3.83152,0.13841 3.8464,0.95725 0.0166,0.91166 0.052,0.91166 0.74404,0 0.98235,-1.29408 7.44355,-1.41278 7.44355,-0.13676 0,0.45128 0.24615,0.82051 0.547,0.82051 0.30085,0 0.547,-0.36923 0.547,-0.82051 0,-0.65119 0.7901,-0.82049 3.82899,-0.82049 l 3.82899,0 0,1.91449 c 0,1.05298 0.24616,1.9145 0.547,1.9145 0.30086,0 0.547,-0.86152 0.547,-1.9145 l 0,-1.91449 3.5555,0 c 2.79578,0 3.5555,0.17532 3.5555,0.82049 0,0.45128 0.24615,0.82051 0.547,0.82051 0.30084,0 0.547,-0.36923 0.547,-0.82051 0,-1.25608 6.15945,-1.14688 7.4382,0.13187 z"
       id="path4031-8"
       inkscape:connector-curvature="0"
       clip-path="url(#clipPath3118)" /><path
       style="fill:#dc143c;fill-opacity:1;fill-rule:nonzero;stroke:#000000;stroke-opacity:1"
       d="m 904.06349,216.1545 c -0.12536,0.12224 -3.12424,0.36637 -6.66416,0.5425 -8.4386,0.41989 -13.2433,1.53167 -19.4142,4.49238 -9.12904,4.37997 -16.44324,13.16655 -25.26319,30.34884 l -4.07169,7.93212 2.29224,8.45266 c 4.48407,16.5351 7.72096,31.83273 15.96696,75.46006 8.6817,45.93247 12.26828,62.01312 16.12632,72.3032 4.48178,11.95368 7.64338,13.61745 11.61397,6.1118 4.8363,-9.14209 9.0366,-26.69101 18.70306,-78.14149 13.03615,-69.38599 19.39879,-93.54446 29.12099,-110.57012 2.76576,-4.84344 8.17083,-10.91829 11.69611,-13.14543 1.71566,-1.08389 2.44943,-1.91587 2.45011,-2.77803 8e-4,-1.14856 -0.2334,-1.23074 -3.50893,-1.23074 -2.27308,0 -3.62235,0.24094 -3.82899,0.68375 -0.25527,0.54699 -0.38291,0.54699 -0.63817,0 -0.206,-0.44144 -1.54679,-0.68375 -3.78341,-0.68375 -2.23662,0 -3.57741,0.24231 -3.78342,0.68375 -0.25526,0.54699 -0.38289,0.54699 -0.63816,0 -0.2096,-0.44917 -1.60149,-0.68375 -4.05691,-0.68375 -2.45542,0 -3.8473,0.23458 -4.05691,0.68375 -0.25526,0.54699 -0.3829,0.54699 -0.63817,0 -0.41926,-0.89843 -6.88269,-0.92117 -7.7765,-0.0274 -0.51053,0.51053 -0.6564,0.51053 -0.6564,0 0,-0.92925 -7.45155,-0.9034 -7.88591,0.0274 -0.25526,0.54699 -0.3829,0.54699 -0.63816,0 -0.41927,-0.89843 -6.88269,-0.92117 -7.77651,-0.0274 -0.51053,0.51053 -0.6564,0.51053 -0.6564,0 0,-0.60696 -1.71459,-0.94023 -2.23357,-0.43415 l 0,0 z"
       id="path4035"
       inkscape:connector-curvature="0"
       clip-path="url(#clipPath3114)" /><path
       style="fill:#191970;fill-opacity:1;fill-rule:nonzero;stroke:#000000;stroke-opacity:1"
       d="m 849.72291,215.67679 c -0.16036,0.16036 -3.09364,0.30446 -6.51841,0.32024 -18.26593,0.0841 -28.12197,3.27522 -37.48234,12.13559 -4.08443,3.86625 -10.78113,11.94484 -11.53921,13.92037 -0.1538,0.4008 1.5847,4.47204 3.86334,9.04721 2.27864,4.57517 6.94844,14.12517 10.37734,21.22223 8.35971,17.30276 12.35815,23.39694 16.85669,25.69192 2.77265,1.4145 4.56524,1.33837 7.38411,-0.31359 4.65349,-2.72714 9.21315,-10.00884 18.23071,-29.11418 14.57405,-30.87777 20.77595,-40.31837 30.9626,-47.13162 3.40097,-2.27471 9.23758,-4.71137 13.64881,-5.69809 0.60171,-0.1346 -0.42392,-0.27327 -2.27916,-0.30817 -2.21754,-0.0418 -3.48248,0.1708 -3.69224,0.6203 -0.25527,0.54699 -0.3829,0.54699 -0.63816,0 -0.20665,-0.44281 -1.55592,-0.68375 -3.829,-0.68375 l -3.50992,0 0,1.641 c 0,0.90255 -0.24614,1.64099 -0.547,1.64099 -0.30084,0 -0.547,-0.73845 -0.547,-1.64099 l 0,-1.641 -3.7834,0 c -2.49188,0 -3.89234,0.23341 -4.1025,0.68375 -0.25526,0.54699 -0.3829,0.54699 -0.63816,0 -0.41927,-0.89843 -6.8827,-0.92116 -7.77651,-0.0274 -0.51053,0.51053 -0.6564,0.51053 -0.6564,0 0,-0.92925 -7.45155,-0.9034 -7.88591,0.0274 -0.25526,0.54699 -0.38289,0.54699 -0.63816,0 -0.31041,-0.66518 -4.66264,-0.98969 -5.26012,-0.3922 z"
       id="path4033"
       inkscape:connector-curvature="0"
       clip-path="url(#clipPath3110)" /><path
       style="fill:#00ced1;fill-opacity:1;fill-rule:nonzero;stroke:#000000;stroke-opacity:1"
       d="m 734.88176,250.84271 c -2.55497,6.97738 -6.02533,18.41475 -9.06244,29.86737 l -1.68718,6.3622 1.9172,4.47924 c 6.90456,16.13149 12.46547,23.00606 17.78697,21.98878 4.08833,-0.78153 10.12291,-10.49481 17.0166,-27.38999 l 3.66552,-8.98354 -2.10632,-1.04213 c -4.58132,-2.26666 -11.56644,-11.13949 -21.08428,-26.78226 -1.77816,-2.92244 -3.39132,-5.3224 -3.58479,-5.33324 -0.19346,-0.0108 -1.48105,3.06426 -2.86128,6.83357 l 0,0 z"
       id="path4037"
       inkscape:connector-curvature="0"
       clip-path="url(#clipPath3106)" /><path
       style="fill:#adff2f;fill-opacity:1;fill-rule:nonzero;stroke:#000000;stroke-opacity:1"
       d="m 784.412,217.43161 c -0.68479,0.68478 -1.01595,0.76163 -1.17866,0.2735 -0.29911,-0.89734 -6.78986,-0.91632 -7.68371,-0.0225 -0.51053,0.51053 -0.6564,0.49859 -0.6564,-0.0537 0,-0.54636 -0.78831,-0.6237 -3.41875,-0.33541 -9.72454,1.06584 -16.06109,3.5448 -21.18374,8.28747 -4.21243,3.89997 -6.53142,7.09499 -10.10883,13.92755 l -2.89482,5.52887 6.27409,9.92564 c 7.81788,12.36794 10.81437,16.42784 14.95275,20.25925 4.5867,4.24648 8.06909,5.1048 12.33422,3.04008 4.89021,-2.36731 10.22301,-9.11656 21.5487,-27.27226 11.92481,-19.11612 20.16703,-27.3949 31.45278,-31.59222 1.80511,-0.67134 2.97433,-1.23346 2.59828,-1.24914 -0.37607,-0.0157 -0.68375,-0.39772 -0.68375,-0.849 0,-0.65119 -0.79011,-0.82049 -3.829,-0.82049 -3.27536,0 -3.83151,0.13841 -3.84639,0.95725 -0.0166,0.91166 -0.052,0.91166 -0.74405,0 -0.98234,-1.29408 -7.44354,-1.41278 -7.44354,-0.13676 0,0.45128 -0.24615,0.82051 -0.547,0.82051 -0.30085,0 -0.547,-0.36923 -0.547,-0.82051 0,-0.65119 -0.7901,-0.82049 -3.82899,-0.82049 l -3.82899,0 0,1.91449 c 0,1.05298 -0.24616,1.9145 -0.547,1.9145 -0.30086,0 -0.547,-0.86152 -0.547,-1.9145 l 0,-1.91449 -3.5555,0 c -2.79578,0 -3.5555,0.17532 -3.5555,0.82049 0,0.45128 -0.24615,0.82051 -0.547,0.82051 -0.30084,0 -0.547,-0.36923 -0.547,-0.82051 0,-1.25608 -6.15945,-1.14688 -7.4382,0.13187 z"
       id="path4031"
       inkscape:connector-curvature="0"
       clip-path="url(#clipPath3102)" /><path
       style="fill:#ffff00;fill-opacity:1;fill-rule:nonzero;stroke:#000000;stroke-opacity:1"
       d="m 634.86143,219.72113 c 0,2.1066 0.20897,2.7495 0.95725,2.94504 0.84221,0.2201 0.83179,0.25779 -0.0867,0.31362 -0.81676,0.0496 -0.3329,0.80747 2.22332,3.48219 9.76568,10.21838 16.42338,25.88777 25.27646,59.48998 0.91209,3.46187 4.50276,18.35393 7.97928,33.09346 9.30331,39.44364 12.87185,51.8852 17.37874,60.59029 3.66046,7.07024 6.0189,8.03068 9.63423,3.92346 5.21246,-5.92168 9.33361,-19.58202 21.43763,-71.05925 12.6637,-53.8575 20.14428,-74.16147 31.60086,-85.77186 2.12357,-2.15208 5.04454,-4.42236 6.98286,-5.42734 2.85625,-1.48089 3.29743,-1.90955 3.08878,-3.00107 -0.22677,-1.1863 -0.50098,-1.2734 -4.00865,-1.2734 -3.40056,0 -3.76523,0.10595 -3.76523,1.094 0,0.60169 -0.24615,1.094 -0.547,1.094 -0.30084,0 -0.547,-0.49231 -0.547,-1.094 0,-0.98876 -0.36467,-1.094 -3.79095,-1.094 -3.49495,0 -3.80985,0.0961 -4.03305,1.23075 l -0.2421,1.23074 -0.40674,-1.23074 c -0.36528,-1.10532 -0.7626,-1.23075 -3.89844,-1.23075 -3.12703,0 -3.49169,0.11425 -3.49169,1.094 0,0.60169 -0.24615,1.094 -0.547,1.094 -0.30085,0 -0.547,-0.49231 -0.547,-1.094 0,-0.98876 -0.36467,-1.094 -3.79095,-1.094 -3.49496,0 -3.80986,0.0961 -4.03306,1.23075 l -0.2421,1.23074 -0.40673,-1.23074 c -0.36529,-1.10532 -0.7626,-1.23075 -3.89844,-1.23075 l -3.4917,0 0,2.188 c 0,1.20339 -0.24615,2.18799 -0.547,2.18799 -0.30085,0 -0.547,-0.9846 -0.547,-2.18799 l 0,-2.188 -3.82899,0 c -3.46433,0 -3.829,0.10419 -3.829,1.094 0,0.60169 -0.24614,1.094 -0.547,1.094 -0.30085,0 -0.547,-0.49231 -0.547,-1.094 0,-0.98179 -0.36466,-1.094 -3.55549,-1.094 -3.19083,0 -3.55549,0.11221 -3.55549,1.094 0,0.60169 -0.24616,1.094 -0.547,1.094 -0.30085,0 -0.547,-0.49231 -0.547,-1.094 0,-0.98981 -0.36468,-1.094 -3.829,-1.094 -3.46432,0 -3.829,0.10419 -3.829,1.094 0,0.60169 -0.24614,1.094 -0.547,1.094 -0.30084,0 -0.547,-0.49231 -0.547,-1.094 0,-0.97975 -0.36466,-1.094 -3.49169,-1.094 -3.13584,0 -3.53315,0.12543 -3.89843,1.23075 l -0.40674,1.23074 -0.2421,-1.23074 c -0.2232,-1.13466 -0.5381,-1.23075 -4.03306,-1.23075 -3.42628,0 -3.79095,0.10524 -3.79095,1.094 0,0.60169 -0.24615,1.094 -0.547,1.094 -0.30085,0 -0.54699,-0.49231 -0.54699,-1.094 0,-0.97975 -0.36468,-1.094 -3.49171,-1.094 -3.13583,0 -3.53315,0.12543 -3.89843,1.23075 l -0.40674,1.23074 -0.2421,-1.23074 c -0.2232,-1.13466 -0.5381,-1.23075 -4.03306,-1.23075 -3.42628,0 -3.79095,0.10524 -3.79095,1.094 0,0.60169 -0.24614,1.094 -0.547,1.094 -0.30085,0 -0.54699,-0.49231 -0.54699,-1.094 0,-0.98876 -0.36467,-1.094 -3.79095,-1.094 -3.49646,0 -3.80937,0.0956 -4.02801,1.23075 l -0.23705,1.23074 -0.0745,-1.23074 c -0.0697,-1.15202 -0.31941,-1.23075 -3.90348,-1.23075 -3.46433,0 -3.829,0.10419 -3.829,1.094 0,0.60169 -0.24614,1.094 -0.54699,1.094 -0.30086,0 -0.547,-0.49231 -0.547,-1.094 0,-0.98179 -0.36467,-1.094 -3.5555,-1.094 l -3.55549,0 0,2.69489 z"
       id="path4029"
       inkscape:connector-curvature="0"
       clip-path="url(#clipPath3098)" /><text
       xml:space="preserve"
       style="font-size:25.60000038px;font-style:normal;font-variant:normal;font-weight:bold;font-stretch:normal;text-align:end;line-height:125%;letter-spacing:0px;word-spacing:0px;writing-mode:lr-tb;text-anchor:end;fill:#000000;fill-opacity:1;stroke:none;font-family:Sakkal Majalla;-inkscape-font-specification:Sans Bold"
       x="804.01288"
       y="-190.55412"
       id="text4919"
       sodipodi:linespacing="125%"
       transform="scale(1,-1)"><tspan
         sodipodi:role="line"
         id="tspan4921"
         x="804.01288"
         y="-190.55412">زمان</tspan></text>
<text
       xml:space="preserve"
       style="font-size:25.60000038px;font-style:normal;font-variant:normal;font-weight:bold;font-stretch:normal;text-align:end;line-height:125%;letter-spacing:0px;word-spacing:0px;writing-mode:lr-tb;text-anchor:end;fill:#000000;fill-opacity:1;stroke:none;font-family:Sakkal Majalla;-inkscape-font-specification:Sans Bold"
       x="387.56659"
       y="592.27747"
       id="text4923"
       sodipodi:linespacing="125%"
       transform="matrix(0,1,1,0,0,0)"><tspan
         sodipodi:role="line"
         id="tspan4925"
         x="387.56659"
         y="592.27747">توجه به عنوان</tspan></text>
</g></svg>