<?xml version="1.0" encoding="UTF-8" standalone="no"?>
<!-- Created with Inkscape (http://www.inkscape.org/) -->

<svg
   xmlns:dc="http://purl.org/dc/elements/1.1/"
   xmlns:cc="http://creativecommons.org/ns#"
   xmlns:rdf="http://www.w3.org/1999/02/22-rdf-syntax-ns#"
   xmlns:svg="http://www.w3.org/2000/svg"
   xmlns="http://www.w3.org/2000/svg"
   xmlns:sodipodi="http://sodipodi.sourceforge.net/DTD/sodipodi-0.dtd"
   xmlns:inkscape="http://www.inkscape.org/namespaces/inkscape"
   id="svg2"
   version="1.1"
   inkscape:version="0.48.3.1 r9886"
   width="731.25"
   height="551.25"
   xml:space="preserve"
   sodipodi:docname="SIR.eps"><metadata
     id="metadata8"><rdf:RDF><cc:Work
         rdf:about=""><dc:format>image/svg+xml</dc:format><dc:type
           rdf:resource="http://purl.org/dc/dcmitype/StillImage" /><dc:title></dc:title></cc:Work></rdf:RDF></metadata><defs
     id="defs6"><marker
       inkscape:stockid="EmptyDiamondM"
       orient="auto"
       refY="0.0"
       refX="0.0"
       id="EmptyDiamondM"
       style="overflow:visible"><path
         id="path4545"
         d="M 0,-7.0710768 L -7.0710894,0 L 0,7.0710589 L 7.0710462,0 L 0,-7.0710768 z "
         style="fill-rule:evenodd;fill:#FFFFFF;stroke:#000000;stroke-width:1.0pt"
         transform="scale(0.4)" /></marker><marker
       inkscape:stockid="SquareM"
       orient="auto"
       refY="0.0"
       refX="0.0"
       id="SquareM"
       style="overflow:visible"><path
         id="path4509"
         d="M -5.0,-5.0 L -5.0,5.0 L 5.0,5.0 L 5.0,-5.0 L -5.0,-5.0 z "
         style="fill-rule:evenodd;stroke:#000000;stroke-width:1.0pt"
         transform="scale(0.4)" /></marker><marker
       inkscape:stockid="DotM"
       orient="auto"
       refY="0.0"
       refX="0.0"
       id="DotM"
       style="overflow:visible"><path
         id="path4500"
         d="M -2.5,-1.0 C -2.5,1.7600000 -4.7400000,4.0 -7.5,4.0 C -10.260000,4.0 -12.5,1.7600000 -12.5,-1.0 C -12.5,-3.7600000 -10.260000,-6.0 -7.5,-6.0 C -4.7400000,-6.0 -2.5,-3.7600000 -2.5,-1.0 z "
         style="fill-rule:evenodd;stroke:#000000;stroke-width:1.0pt"
         transform="scale(0.4) translate(7.4, 1)" /></marker><marker
       inkscape:stockid="Arrow1Send"
       orient="auto"
       refY="0.0"
       refX="0.0"
       id="Arrow1Send"
       style="overflow:visible;"><path
         id="path4451"
         d="M 0.0,0.0 L 5.0,-5.0 L -12.5,0.0 L 5.0,5.0 L 0.0,0.0 z "
         style="fill-rule:evenodd;stroke:#000000;stroke-width:1.0pt;"
         transform="scale(0.2) rotate(180) translate(6,0)" /></marker><marker
       inkscape:stockid="Arrow1Sstart"
       orient="auto"
       refY="0.0"
       refX="0.0"
       id="Arrow1Sstart"
       style="overflow:visible"><path
         id="path4448"
         d="M 0.0,0.0 L 5.0,-5.0 L -12.5,0.0 L 5.0,5.0 L 0.0,0.0 z "
         style="fill-rule:evenodd;stroke:#000000;stroke-width:1.0pt"
         transform="scale(0.2) translate(6,0)" /></marker><marker
       inkscape:stockid="Arrow1Lend"
       orient="auto"
       refY="0.0"
       refX="0.0"
       id="Arrow1Lend"
       style="overflow:visible;"><path
         id="path4439"
         d="M 0.0,0.0 L 5.0,-5.0 L -12.5,0.0 L 5.0,5.0 L 0.0,0.0 z "
         style="fill-rule:evenodd;stroke:#000000;stroke-width:1.0pt;"
         transform="scale(0.8) rotate(180) translate(12.5,0)" /></marker><clipPath
       clipPathUnits="userSpaceOnUse"
       id="clipPath18"><path
         d="m 5,5 5845,0 0,4405 L 5,4410 5,5 z"
         id="path20" /></clipPath><clipPath
       clipPathUnits="userSpaceOnUse"
       id="clipPath30"><path
         d="m 736.199,446 4534.001,0 0,3528 -4534.001,0 0,-3528 z"
         id="path32" /></clipPath><clipPath
       clipPathUnits="userSpaceOnUse"
       id="clipPath44"><path
         d="m 5,5 5845,0 0,4405 L 5,4410 5,5 z"
         id="path46" /></clipPath></defs><sodipodi:namedview
     pagecolor="#ffffff"
     bordercolor="#666666"
     borderopacity="1"
     objecttolerance="10"
     gridtolerance="10"
     guidetolerance="10"
     inkscape:pageopacity="0"
     inkscape:pageshadow="2"
     inkscape:window-width="1366"
     inkscape:window-height="715"
     id="namedview4"
     showgrid="false"
     inkscape:zoom="0.86184506"
     inkscape:cx="196.75708"
     inkscape:cy="222.53317"
     inkscape:window-x="0"
     inkscape:window-y="31"
     inkscape:window-maximized="1"
     inkscape:current-layer="g10" /><g
     id="g10"
     inkscape:groupmode="layer"
     inkscape:label="ink_ext_XXXXXX"
     transform="matrix(1.25,0,0,-1.25,0,551.25)"><path
       inkscape:connector-curvature="0"
       id="path22"
       style="fill:#ffffff;fill-opacity:1;fill-rule:nonzero;stroke:none;stroke-width:1.99999996;stroke-miterlimit:10;stroke-dasharray:none;marker-mid:url(#EmptyDiamondM)"
       d="m 0.5,0.5 585,0 0,441 -585,0 0,-441 z" /><path
       inkscape:connector-curvature="0"
       id="path24"
       style="fill:#ffffff;fill-opacity:1;fill-rule:nonzero;stroke:none"
       d="m 73.625,44.6 453.375,0 0,352.8 -453.375,0 0,-352.8 z" /><path
       inkscape:connector-curvature="0"
       id="path34"
       style="fill:none;stroke:#0000ff;stroke-width:1;stroke-linecap:square;stroke-linejoin:round;stroke-miterlimit:10;stroke-opacity:1;stroke-dasharray:none"
       d="m 73.625,397.4 3.0227,0 1.0074,-0.353 4.0301,0 1.0074,-0.705 5.0375,0 2.0148,-0.706 7.0528,0 2.0148,-0.706 1.0074,0 2.0151,-0.705 1.008,0 1.007,-0.353 1.008,0 1.007,-0.353 1.008,-0.705 1.007,0 2.015,-1.412 2.015,0 1.008,-0.705 1.007,0 1.008,-0.353 1.007,-0.706 1.008,-0.352 1.007,0 2.015,-0.706 1.008,-1.411 2.015,-1.411 1.007,0 1.007,-0.353 1.008,0 2.015,-1.411 1.007,-0.353 1.008,-1.764 1.008,-1.411 1.007,-1.059 1.007,-2.469 1.008,-1.412 1.008,-0.705 2.014,-3.528 2.016,-2.823 1.007,-0.705 1.007,-1.059 3.023,-6.35 1.007,-1.411 1.008,-0.706 1.008,-1.058 2.015,-4.939 1.007,-2.117 1.007,-1.764 1.008,-2.823 1.008,-0.705 1.007,-1.059 1.008,-2.116 1.007,-1.412 1.008,-2.822 1.007,-1.764 1.007,-3.881 1.008,-2.117 1.008,-3.88 1.007,-2.823 1.008,-2.117 1.007,-2.822 2.015,-3.528 1.007,-3.528 2.016,-3.528 1.007,-4.234 2.015,-6.35 1.008,-2.117 2.014,-6.703 1.008,-2.117 1.008,-2.822 1.007,-2.47 2.015,-6.703 1.008,-3.175 1.007,-1.411 2.015,-7.056 1.008,-5.292 1.007,-3.176 2.015,-8.467 1.008,-2.822 1.007,-2.47 1.007,-1.764 1.008,-3.175 1.008,-1.764 2.015,-7.409 1.007,-2.469 1.008,-2.823 2.014,-6.35 1.008,-1.764 1.008,-3.881 1.007,-1.764 1.008,-2.47 1.007,-2.822 1.008,-2.117 1.007,-2.469 1.008,-1.764 1.007,-3.176 1.008,-2.116 1.007,-1.412 1.008,-3.175 1.007,-2.469 1.008,-2.823 1.007,-1.764 1.008,-4.233 1.007,-2.117 2.015,-4.939 1.008,-1.412 1.007,-2.469 2.015,-2.823 1.008,-1.058 1.007,-1.411 1.008,-2.47 1.007,-1.411 1.008,-1.764 1.007,-1.058 1.008,-1.412 1.007,-0.352 1.008,-1.412 1.007,-0.705 1.008,-1.059 1.007,-0.352 1.008,-1.412 1.007,-0.705 1.007,-0.353 1.008,-0.706 1.008,-1.058 1.007,-0.353 1.007,-0.705 1.008,-1.059 1.008,0 2.014,-0.705 1.008,0 1.008,-0.353 1.007,-1.059 1.008,-0.705 4.03,-1.411 1.007,-1.412 1.008,-0.705 2.015,0 1.007,-0.706 2.015,-0.705 1.008,-0.706 1.007,0 1.008,-1.411 1.007,0 1.008,-1.059 1.007,0 1.007,-0.352 3.023,-2.117 2.015,-0.706 1.008,0 1.007,-0.353 1.008,-0.705 2.015,-0.706 1.007,-0.705 1.008,0 2.015,-1.412 3.022,0 1.007,-0.352 1.008,-0.706 4.03,-1.411 2.015,0 1.008,-0.353 5.037,0 1.007,-0.706 4.03,-1.411 3.023,0 2.015,-0.705 4.03,0 2.015,-0.706 2.015,0 1.007,-0.353 6.046,0 1.007,-0.353 2.015,0 1.008,-0.352 4.03,0 1.007,-0.706 1.007,0 1.008,-0.706 6.045,0 1.007,-0.352 1.008,0 1.008,-0.706 3.022,0 1.008,-0.353 38.285,0 1.007,-0.353 16.12,0 1.008,-0.352 1.007,0 1.008,-0.353 7.052,0 1.008,-0.353 11.082,0 1.008,-0.353 1.007,0 1.008,-0.353 20.15,0 1.007,-0.352 46.345,0 0,0" /><path
       inkscape:connector-curvature="0"
       id="path36"
       style="fill:none;stroke:#008000;stroke-width:3.00000008;stroke-linecap:square;stroke-linejoin:round;stroke-miterlimit:10;stroke-opacity:1;stroke-dasharray:3.00000008,6.00000015;stroke-dashoffset:0"
       d="m 73.625,44.9527 3.0227,0 1.0074,0.3528 4.0301,0 1.0074,0.7058 3.0222,0 1.0079,-0.7058 1.0074,0 1.0074,0.3531 8.0602,0 2.0148,0.7055 1.0074,0 2.0151,0.7054 1.008,0 1.007,0.3528 1.008,0 2.015,0.7058 1.007,-0.7058 2.015,0.7058 1.008,-0.3527 2.015,0 1.007,-0.3531 1.008,0.3531 1.007,0 1.008,0.3527 1.007,-0.3527 2.015,0.7055 1.008,1.4113 2.015,0.7055 1.007,-0.3528 3.023,0 1.007,0.7055 1.007,0 1.008,1.7641 1.008,1.4113 1.007,0.3527 1.007,2.4695 1.008,1.0582 2.015,0.7059 1.007,-0.3527 1.008,0.7054 1.008,0.3528 1.007,0 1.007,-0.3528 1.008,1.7641 1.007,1.4109 1.008,1.7641 1.007,0 1.008,-1.0582 1.008,0.7055 1.007,1.0586 2.015,2.8222 1.007,0 1.008,0.7055 1.008,0 1.007,-0.3527 1.008,1.0586 1.007,0.3527 1.008,1.0582 1.007,0.7059 1.007,2.1168 1.008,0.7054 1.008,1.7641 1.007,2.1168 1.008,0 1.007,1.4109 1.008,0.3531 1.007,0.7055 1.007,2.4695 2.016,0.7055 2.015,2.1172 1.007,0.3527 1.008,0 1.007,0.3528 2.015,3.5281 1.008,0.7055 1.007,0 1.008,0.3527 1.007,1.0586 1.008,1.4109 1.007,-1.4109 1.007,1.7637 1.008,1.4113 1.008,2.8223 1.007,0 1.008,1.4113 1.007,-0.3528 1.008,-0.7054 1.007,0.7054 1.007,0 1.008,0.3528 1.008,-1.0582 1.007,2.1172 1.008,0.705 1.007,0.353 1.008,0.705 1.007,-0.352 1.007,1.058 2.016,1.411 1.007,-0.705 1.008,-1.412 1.007,-0.705 1.008,-2.4698 1.007,1.7638 1.008,-0.352 1.007,0.705 1.008,-1.0585 1.007,-1.411 1.008,0.7055 1.007,0 1.008,0.3527 1.007,0 1.008,2.4693 1.007,-0.705 1.008,-1.7643 1.007,-1.0582 1.008,-0.7058 1.007,-1.0582 1.008,-2.8223 1.007,-0.7059 1.008,-2.1168 1.007,-1.4109 2.015,0 1.008,0.7055 1.007,-1.4114 2.015,-3.5277 1.008,-2.1172 1.007,-1.0582 1.008,-1.4113 1.007,-0.3528 1.008,-1.0582 1.007,-2.8226 1.007,-0.7055 2.016,-2.1168 1.007,-0.7054 1.007,-0.3532 1.008,-0.7054 1.008,-1.7641 1.007,0.3527 1.007,-1.0582 1.008,-1.4113 1.008,-0.7055 1.007,-0.3527 1.008,0.3527 2.015,-0.7054 1.007,-1.7641 1.008,-0.3527 1.007,0.7054 1.008,-0.7054 1.007,-0.3532 1.008,-0.7054 4.03,0 1.007,-0.3528 1.008,0.3528 1.007,-0.3528 1.008,0 1.007,-1.4113 3.022,-1.0582 1.008,0.3527 1.008,-0.7054 1.007,-0.3532 1.008,-1.0582 1.007,0 1.008,0.3528 1.007,-1.0582 2.015,0 1.008,-0.7059 1.007,0 1.008,-0.7055 1.007,-0.3527 2.015,0 1.007,-1.0586 3.023,0 1.008,-0.3527 1.007,0.3527 1.008,0 3.022,-1.0582 1.008,0 1.007,-0.7058 1.008,0 1.007,-0.3528 1.007,0.7059 1.008,0 1.007,-0.3531 1.008,0.3531 2.015,0 1.008,-0.3531 1.007,0 1.008,-0.3528 1.007,0 1.008,-0.3527 1.007,-1.4113 1.008,-0.7055 1.007,0 1.008,0.3527 2.015,0 3.022,-1.0582 8.06,0 1.008,0.3528 3.022,0 1.008,-0.3528 1.007,0.7055 1.007,-0.3527 1.008,0.3527 1.008,-0.3527 1.007,-0.7055 1.008,0 1.007,-0.3531 1.008,0 1.007,-0.3528 1.007,0.3528 1.008,-0.3528 1.008,0.7059 1.007,-1.0586 1.008,0 2.015,-0.7055 1.007,0 4.03,-1.4113 4.03,0 1.008,-0.3527 3.022,0 1.008,-0.7055 18.135,0 1.007,-0.3531 5.038,0 1.007,0.3531 16.12,0 1.008,0.3527 3.022,0 1.008,-0.7058 4.03,0 1.007,-0.3528 1.008,0.3528 13.097,0 1.008,0.3531 5.037,0 1.007,-0.3531 14.106,0 1.007,0.3531 13.098,0 1.007,-0.3531 1.008,0 1.007,-0.3528 29.218,0 1.007,-0.3527 0,0" /><path
       style="fill:none;stroke:#ff0000;stroke-width:1.56;stroke-linecap:round;stroke-linejoin:round;stroke-miterlimit:10;stroke-opacity:1;stroke-dasharray:0.78,0.78;fill-opacity:1;stroke-dashoffset:6.39600069;marker-mid:url(#EmptyDiamondM)"
       d="m 73.625,44.6 c 10.37417,-0.47607 20.021952,1.872958 30.50575,1.0586 6.11461,1.037571 11.41294,4.707981 17.81707,4.573216 4.92231,3.028302 13.02781,0.416873 15.14918,7.068984 4.38509,3.750188 8.66592,6.677229 12.091,11.2894 5.0001,6.593555 10.53026,13.321143 14.70209,20.593381 6.24824,5.844885 7.6989,14.404959 11.49191,21.742419 3.74797,3.57524 4.26764,10.21716 7.053,14.818 5.2134,9.02588 5.91213,19.69368 10.79498,28.8285 4.72708,11.19156 10.18207,21.84467 12.37802,33.9695 4.9199,6.70153 5.69392,16.10424 10.42035,23.19479 3.37678,10.55004 5.6883,21.60805 10.73665,31.48921 3.80135,6.13163 4.89583,13.90574 9.068,19.757 2.28855,7.95957 8.33367,13.23776 13.097,19.404 4.56483,2.31941 6.52037,8.01726 12.09,9.173 5.8451,3.28253 9.88835,9.26327 15.70964,12.4786 4.16547,3.19075 7.80281,5.53481 12.42488,7.60495 6.16762,2.21913 12.68738,3.84113 19.05253,5.55438 3.31737,2.86836 7.27836,2.90415 11.24795,4.70307 6.85146,0.16965 13.90751,-0.0157 20.15,2.822 7.13552,0.93657 13.42922,5.34663 21.19812,4.587 9.39827,1.42124 19.62428,0.4854 29.33736,1.058 8.56397,-0.35238 16.86768,0.17211 25.04708,1.411 16.11156,0.24681 32.12616,1.06314 48.34044,0.706 10.75544,1.86832 22.37891,-0.22973 33.247,1.058"
       id="path38"
       inkscape:connector-curvature="0" /><path
       inkscape:connector-curvature="0"
       id="path48"
       style="fill:#000000;fill-opacity:1;fill-rule:nonzero;stroke:none"
       d="m 73.625,44.6 0,4" /><path
       inkscape:connector-curvature="0"
       id="path50"
       style="fill:none;stroke:#000000;stroke-width:0.5;stroke-linecap:butt;stroke-linejoin:round;stroke-miterlimit:10;stroke-opacity:1;stroke-dasharray:none"
       d="m 73.625,44.6 0,4" /><path
       inkscape:connector-curvature="0"
       id="path52"
       style="fill:#000000;fill-opacity:1;fill-rule:nonzero;stroke:none"
       d="m 73.625,397.4 0,-4" /><path
       inkscape:connector-curvature="0"
       id="path54"
       style="fill:none;stroke:#000000;stroke-width:0.5;stroke-linecap:butt;stroke-linejoin:round;stroke-miterlimit:10;stroke-opacity:1;stroke-dasharray:none"
       d="m 73.625,397.4 0,-4" /><text
       transform="scale(1,-1)"
       id="text58"
       x="70.601601"
       y="-31.6938"><tspan
         style="font-size:12px;font-variant:normal;font-weight:normal;writing-mode:lr-tb;fill:#000000;fill-opacity:1;fill-rule:nonzero;stroke:none;font-family:Arial Black;-inkscape-font-specification:Arial"
         x="70.601601"
         y="-31.6938"
         id="tspan60">0</tspan></text>
<path
       inkscape:connector-curvature="0"
       id="path62"
       style="fill:#000000;fill-opacity:1;fill-rule:nonzero;stroke:none"
       d="m 124,44.6 0,4" /><path
       inkscape:connector-curvature="0"
       id="path64"
       style="fill:none;stroke:#000000;stroke-width:0.5;stroke-linecap:butt;stroke-linejoin:round;stroke-miterlimit:10;stroke-opacity:1;stroke-dasharray:none"
       d="m 124,44.6 0,4" /><path
       inkscape:connector-curvature="0"
       id="path66"
       style="fill:#000000;fill-opacity:1;fill-rule:nonzero;stroke:none"
       d="m 124,397.4 0,-4" /><path
       inkscape:connector-curvature="0"
       id="path68"
       style="fill:none;stroke:#000000;stroke-width:0.5;stroke-linecap:butt;stroke-linejoin:round;stroke-miterlimit:10;stroke-opacity:1;stroke-dasharray:none"
       d="m 124,397.4 0,-4" /><text
       transform="scale(1,-1)"
       id="text72"
       x="117.219"
       y="-31.6938"><tspan
         style="font-size:12px;font-variant:normal;font-weight:normal;writing-mode:lr-tb;fill:#000000;fill-opacity:1;fill-rule:nonzero;stroke:none;font-family:Arial Black;-inkscape-font-specification:Arial"
         x="117.219 124.85377"
         y="-31.6938"
         sodipodi:role="line"
         id="tspan74">50</tspan></text>
<path
       inkscape:connector-curvature="0"
       id="path76"
       style="fill:#000000;fill-opacity:1;fill-rule:nonzero;stroke:none"
       d="m 174.375,44.6 0,4" /><path
       inkscape:connector-curvature="0"
       id="path78"
       style="fill:none;stroke:#000000;stroke-width:0.5;stroke-linecap:butt;stroke-linejoin:round;stroke-miterlimit:10;stroke-opacity:1;stroke-dasharray:none"
       d="m 174.375,44.6 0,4" /><path
       inkscape:connector-curvature="0"
       id="path80"
       style="fill:#000000;fill-opacity:1;fill-rule:nonzero;stroke:none"
       d="m 174.375,397.4 0,-4" /><path
       inkscape:connector-curvature="0"
       id="path82"
       style="fill:none;stroke:#000000;stroke-width:0.5;stroke-linecap:butt;stroke-linejoin:round;stroke-miterlimit:10;stroke-opacity:1;stroke-dasharray:none"
       d="m 174.375,397.4 0,-4" /><text
       transform="scale(1,-1)"
       id="text86"
       x="163.96899"
       y="-31.6938"><tspan
         style="font-size:12px;font-variant:normal;font-weight:normal;writing-mode:lr-tb;fill:#000000;fill-opacity:1;fill-rule:nonzero;stroke:none;font-family:Arial Black;-inkscape-font-specification:Arial"
         x="163.96899 171.60378 179.23854"
         y="-31.6938"
         sodipodi:role="line"
         id="tspan88">100</tspan></text>
<path
       inkscape:connector-curvature="0"
       id="path90"
       style="fill:#000000;fill-opacity:1;fill-rule:nonzero;stroke:none"
       d="m 224.75,44.6 0,4" /><path
       inkscape:connector-curvature="0"
       id="path92"
       style="fill:none;stroke:#000000;stroke-width:0.5;stroke-linecap:butt;stroke-linejoin:round;stroke-miterlimit:10;stroke-opacity:1;stroke-dasharray:none"
       d="m 224.75,44.6 0,4" /><path
       inkscape:connector-curvature="0"
       id="path94"
       style="fill:#000000;fill-opacity:1;fill-rule:nonzero;stroke:none"
       d="m 224.75,397.4 0,-4" /><path
       inkscape:connector-curvature="0"
       id="path96"
       style="fill:none;stroke:#000000;stroke-width:0.5;stroke-linecap:butt;stroke-linejoin:round;stroke-miterlimit:10;stroke-opacity:1;stroke-dasharray:none"
       d="m 224.75,397.4 0,-4" /><text
       transform="scale(1,-1)"
       id="text100"
       x="214.34399"
       y="-31.6938"><tspan
         style="font-size:12px;font-variant:normal;font-weight:normal;writing-mode:lr-tb;fill:#000000;fill-opacity:1;fill-rule:nonzero;stroke:none;font-family:Arial Black;-inkscape-font-specification:Arial"
         x="214.34399 221.97876 229.61353"
         y="-31.6938"
         sodipodi:role="line"
         id="tspan102">150</tspan></text>
<path
       inkscape:connector-curvature="0"
       id="path104"
       style="fill:#000000;fill-opacity:1;fill-rule:nonzero;stroke:none"
       d="m 275.125,44.6 0,4" /><path
       inkscape:connector-curvature="0"
       id="path106"
       style="fill:none;stroke:#000000;stroke-width:0.5;stroke-linecap:butt;stroke-linejoin:round;stroke-miterlimit:10;stroke-opacity:1;stroke-dasharray:none"
       d="m 275.125,44.6 0,4" /><path
       inkscape:connector-curvature="0"
       id="path108"
       style="fill:#000000;fill-opacity:1;fill-rule:nonzero;stroke:none"
       d="m 275.125,397.4 0,-4" /><path
       inkscape:connector-curvature="0"
       id="path110"
       style="fill:none;stroke:#000000;stroke-width:0.5;stroke-linecap:butt;stroke-linejoin:round;stroke-miterlimit:10;stroke-opacity:1;stroke-dasharray:none"
       d="m 275.125,397.4 0,-4" /><text
       transform="scale(1,-1)"
       id="text114"
       x="264.5"
       y="-31.6938"><tspan
         style="font-size:12px;font-variant:normal;font-weight:normal;writing-mode:lr-tb;fill:#000000;fill-opacity:1;fill-rule:nonzero;stroke:none;font-family:Arial Black;-inkscape-font-specification:Arial"
         x="264.5 272.13477 279.76953"
         y="-31.6938"
         sodipodi:role="line"
         id="tspan116">200</tspan></text>
<path
       inkscape:connector-curvature="0"
       id="path118"
       style="fill:#000000;fill-opacity:1;fill-rule:nonzero;stroke:none"
       d="m 325.5,44.6 0,4" /><path
       inkscape:connector-curvature="0"
       id="path120"
       style="fill:none;stroke:#000000;stroke-width:0.5;stroke-linecap:butt;stroke-linejoin:round;stroke-miterlimit:10;stroke-opacity:1;stroke-dasharray:none"
       d="m 325.5,44.6 0,4" /><path
       inkscape:connector-curvature="0"
       id="path122"
       style="fill:#000000;fill-opacity:1;fill-rule:nonzero;stroke:none"
       d="m 325.5,397.4 0,-4" /><path
       inkscape:connector-curvature="0"
       id="path124"
       style="fill:none;stroke:#000000;stroke-width:0.5;stroke-linecap:butt;stroke-linejoin:round;stroke-miterlimit:10;stroke-opacity:1;stroke-dasharray:none"
       d="m 325.5,397.4 0,-4" /><text
       transform="scale(1,-1)"
       id="text128"
       x="314.875"
       y="-31.6938"><tspan
         style="font-size:12px;font-variant:normal;font-weight:normal;writing-mode:lr-tb;fill:#000000;fill-opacity:1;fill-rule:nonzero;stroke:none;font-family:Arial Black;-inkscape-font-specification:Arial"
         x="314.875 322.50977 330.14453"
         y="-31.6938"
         sodipodi:role="line"
         id="tspan130">250</tspan></text>
<path
       inkscape:connector-curvature="0"
       id="path132"
       style="fill:#000000;fill-opacity:1;fill-rule:nonzero;stroke:none"
       d="m 375.875,44.6 0,4" /><path
       inkscape:connector-curvature="0"
       id="path134"
       style="fill:none;stroke:#000000;stroke-width:0.5;stroke-linecap:butt;stroke-linejoin:round;stroke-miterlimit:10;stroke-opacity:1;stroke-dasharray:none"
       d="m 375.875,44.6 0,4" /><path
       inkscape:connector-curvature="0"
       id="path136"
       style="fill:#000000;fill-opacity:1;fill-rule:nonzero;stroke:none"
       d="m 375.875,397.4 0,-4" /><path
       inkscape:connector-curvature="0"
       id="path138"
       style="fill:none;stroke:#000000;stroke-width:0.5;stroke-linecap:butt;stroke-linejoin:round;stroke-miterlimit:10;stroke-opacity:1;stroke-dasharray:none"
       d="m 375.875,397.4 0,-4" /><text
       transform="scale(1,-1)"
       id="text142"
       x="365.27301"
       y="-31.6938"><tspan
         style="font-size:12px;font-variant:normal;font-weight:normal;writing-mode:lr-tb;fill:#000000;fill-opacity:1;fill-rule:nonzero;stroke:none;font-family:Arial Black;-inkscape-font-specification:Arial"
         x="365.27301 372.90775 380.54251"
         y="-31.6938"
         sodipodi:role="line"
         id="tspan144">300</tspan></text>
<path
       inkscape:connector-curvature="0"
       id="path146"
       style="fill:#000000;fill-opacity:1;fill-rule:nonzero;stroke:none"
       d="m 426.25,44.6 0,4" /><path
       inkscape:connector-curvature="0"
       id="path148"
       style="fill:none;stroke:#000000;stroke-width:0.5;stroke-linecap:butt;stroke-linejoin:round;stroke-miterlimit:10;stroke-opacity:1;stroke-dasharray:none"
       d="m 426.25,44.6 0,4" /><path
       inkscape:connector-curvature="0"
       id="path150"
       style="fill:#000000;fill-opacity:1;fill-rule:nonzero;stroke:none"
       d="m 426.25,397.4 0,-4" /><path
       inkscape:connector-curvature="0"
       id="path152"
       style="fill:none;stroke:#000000;stroke-width:0.5;stroke-linecap:butt;stroke-linejoin:round;stroke-miterlimit:10;stroke-opacity:1;stroke-dasharray:none"
       d="m 426.25,397.4 0,-4" /><text
       transform="scale(1,-1)"
       id="text156"
       x="415.64801"
       y="-31.6938"><tspan
         style="font-size:12px;font-variant:normal;font-weight:normal;writing-mode:lr-tb;fill:#000000;fill-opacity:1;fill-rule:nonzero;stroke:none;font-family:Arial Black;-inkscape-font-specification:Arial"
         x="415.64801 423.28278 430.91757"
         y="-31.6938"
         sodipodi:role="line"
         id="tspan158">350</tspan></text>
<path
       inkscape:connector-curvature="0"
       id="path160"
       style="fill:#000000;fill-opacity:1;fill-rule:nonzero;stroke:none"
       d="m 476.625,44.6 0,4" /><path
       inkscape:connector-curvature="0"
       id="path162"
       style="fill:none;stroke:#000000;stroke-width:0.5;stroke-linecap:butt;stroke-linejoin:round;stroke-miterlimit:10;stroke-opacity:1;stroke-dasharray:none"
       d="m 476.625,44.6 0,4" /><path
       inkscape:connector-curvature="0"
       id="path164"
       style="fill:#000000;fill-opacity:1;fill-rule:nonzero;stroke:none"
       d="m 476.625,397.4 0,-4" /><path
       inkscape:connector-curvature="0"
       id="path166"
       style="fill:none;stroke:#000000;stroke-width:0.5;stroke-linecap:butt;stroke-linejoin:round;stroke-miterlimit:10;stroke-opacity:1;stroke-dasharray:none"
       d="m 476.625,397.4 0,-4" /><text
       transform="scale(1,-1)"
       id="text170"
       x="465.85901"
       y="-31.6938"><tspan
         style="font-size:12px;font-variant:normal;font-weight:normal;writing-mode:lr-tb;fill:#000000;fill-opacity:1;fill-rule:nonzero;stroke:none;font-family:Arial Black;-inkscape-font-specification:Arial"
         x="465.85901 473.49377 481.12857"
         y="-31.6938"
         sodipodi:role="line"
         id="tspan172">400</tspan></text>
<path
       inkscape:connector-curvature="0"
       id="path174"
       style="fill:#000000;fill-opacity:1;fill-rule:nonzero;stroke:none"
       d="m 527,44.6 0,4" /><path
       inkscape:connector-curvature="0"
       id="path176"
       style="fill:none;stroke:#000000;stroke-width:0.5;stroke-linecap:butt;stroke-linejoin:round;stroke-miterlimit:10;stroke-opacity:1;stroke-dasharray:none"
       d="m 527,44.6 0,4" /><path
       inkscape:connector-curvature="0"
       id="path178"
       style="fill:#000000;fill-opacity:1;fill-rule:nonzero;stroke:none"
       d="m 527,397.4 0,-4" /><path
       inkscape:connector-curvature="0"
       id="path180"
       style="fill:none;stroke:#000000;stroke-width:0.5;stroke-linecap:butt;stroke-linejoin:round;stroke-miterlimit:10;stroke-opacity:1;stroke-dasharray:none"
       d="m 527,397.4 0,-4" /><text
       transform="scale(1,-1)"
       id="text184"
       x="516.23401"
       y="-31.6938"><tspan
         style="font-size:12px;font-variant:normal;font-weight:normal;writing-mode:lr-tb;fill:#000000;fill-opacity:1;fill-rule:nonzero;stroke:none;font-family:Arial Black;-inkscape-font-specification:Arial"
         x="516.23401 523.86877 531.50354"
         y="-31.6938"
         sodipodi:role="line"
         id="tspan186">450</tspan></text>
<path
       inkscape:connector-curvature="0"
       id="path188"
       style="fill:#000000;fill-opacity:1;fill-rule:nonzero;stroke:none"
       d="m 73.625,44.6 4,0" /><path
       inkscape:connector-curvature="0"
       id="path190"
       style="fill:none;stroke:#000000;stroke-width:0.5;stroke-linecap:butt;stroke-linejoin:round;stroke-miterlimit:10;stroke-opacity:1;stroke-dasharray:none"
       d="m 73.625,44.6 4,0" /><path
       inkscape:connector-curvature="0"
       id="path192"
       style="fill:#000000;fill-opacity:1;fill-rule:nonzero;stroke:none"
       d="m 527,44.6 -4,0" /><path
       inkscape:connector-curvature="0"
       id="path194"
       style="fill:none;stroke:#000000;stroke-width:0.5;stroke-linecap:butt;stroke-linejoin:round;stroke-miterlimit:10;stroke-opacity:1;stroke-dasharray:none"
       d="m 527,44.6 -4,0" /><text
       transform="scale(1,-1)"
       id="text198"
       x="63.578098"
       y="-40.2328"><tspan
         style="font-size:12px;font-variant:normal;font-weight:normal;writing-mode:lr-tb;fill:#000000;fill-opacity:1;fill-rule:nonzero;stroke:none;font-family:Arial Black;-inkscape-font-specification:Arial"
         x="63.578098"
         y="-40.2328"
         id="tspan200">0</tspan></text>
<path
       inkscape:connector-curvature="0"
       id="path202"
       style="fill:#000000;fill-opacity:1;fill-rule:nonzero;stroke:none"
       d="m 73.625,115.16 4,0" /><path
       inkscape:connector-curvature="0"
       id="path204"
       style="fill:none;stroke:#000000;stroke-width:0.5;stroke-linecap:butt;stroke-linejoin:round;stroke-miterlimit:10;stroke-opacity:1;stroke-dasharray:none"
       d="m 73.625,115.16 4,0" /><path
       inkscape:connector-curvature="0"
       id="path206"
       style="fill:#000000;fill-opacity:1;fill-rule:nonzero;stroke:none"
       d="m 527,115.16 -4,0" /><path
       inkscape:connector-curvature="0"
       id="path208"
       style="fill:none;stroke:#000000;stroke-width:0.5;stroke-linecap:butt;stroke-linejoin:round;stroke-miterlimit:10;stroke-opacity:1;stroke-dasharray:none"
       d="m 527,115.16 -4,0" /><text
       transform="scale(1,-1)"
       id="text212"
       x="48.375"
       y="-110.793"><tspan
         style="font-size:12px;font-variant:normal;font-weight:normal;writing-mode:lr-tb;fill:#000000;fill-opacity:1;fill-rule:nonzero;stroke:none;font-family:Arial Black;-inkscape-font-specification:Arial"
         x="48.375 56.009766 63.644531"
         y="-110.793"
         sodipodi:role="line"
         id="tspan214">200</tspan></text>
<path
       inkscape:connector-curvature="0"
       id="path216"
       style="fill:#000000;fill-opacity:1;fill-rule:nonzero;stroke:none"
       d="m 73.625,185.72 4,0" /><path
       inkscape:connector-curvature="0"
       id="path218"
       style="fill:none;stroke:#000000;stroke-width:0.5;stroke-linecap:butt;stroke-linejoin:round;stroke-miterlimit:10;stroke-opacity:1;stroke-dasharray:none"
       d="m 73.625,185.72 4,0" /><path
       inkscape:connector-curvature="0"
       id="path220"
       style="fill:#000000;fill-opacity:1;fill-rule:nonzero;stroke:none"
       d="m 527,185.72 -4,0" /><path
       inkscape:connector-curvature="0"
       id="path222"
       style="fill:none;stroke:#000000;stroke-width:0.5;stroke-linecap:butt;stroke-linejoin:round;stroke-miterlimit:10;stroke-opacity:1;stroke-dasharray:none"
       d="m 527,185.72 -4,0" /><text
       transform="scale(1,-1)"
       id="text226"
       x="48.0938"
       y="-181.353"><tspan
         style="font-size:12px;font-variant:normal;font-weight:normal;writing-mode:lr-tb;fill:#000000;fill-opacity:1;fill-rule:nonzero;stroke:none;font-family:Arial Black;-inkscape-font-specification:Arial"
         x="48.0938 55.728565 63.363331"
         y="-181.353"
         sodipodi:role="line"
         id="tspan228">400</tspan></text>
<path
       inkscape:connector-curvature="0"
       id="path230"
       style="fill:#000000;fill-opacity:1;fill-rule:nonzero;stroke:none"
       d="m 73.625,256.28 4,0" /><path
       inkscape:connector-curvature="0"
       id="path232"
       style="fill:none;stroke:#000000;stroke-width:0.5;stroke-linecap:butt;stroke-linejoin:round;stroke-miterlimit:10;stroke-opacity:1;stroke-dasharray:none"
       d="m 73.625,256.28 4,0" /><path
       inkscape:connector-curvature="0"
       id="path234"
       style="fill:#000000;fill-opacity:1;fill-rule:nonzero;stroke:none"
       d="m 527,256.28 -4,0" /><path
       inkscape:connector-curvature="0"
       id="path236"
       style="fill:none;stroke:#000000;stroke-width:0.5;stroke-linecap:butt;stroke-linejoin:round;stroke-miterlimit:10;stroke-opacity:1;stroke-dasharray:none"
       d="m 527,256.28 -4,0" /><text
       transform="scale(1,-1)"
       id="text240"
       x="48.3438"
       y="-251.91299"><tspan
         style="font-size:12px;font-variant:normal;font-weight:normal;writing-mode:lr-tb;fill:#000000;fill-opacity:1;fill-rule:nonzero;stroke:none;font-family:Arial Black;-inkscape-font-specification:Arial"
         x="48.3438 55.978565 63.613331"
         y="-251.91299"
         sodipodi:role="line"
         id="tspan242">600</tspan></text>
<path
       inkscape:connector-curvature="0"
       id="path244"
       style="fill:#000000;fill-opacity:1;fill-rule:nonzero;stroke:none"
       d="m 73.625,326.84 4,0" /><path
       inkscape:connector-curvature="0"
       id="path246"
       style="fill:none;stroke:#000000;stroke-width:0.5;stroke-linecap:butt;stroke-linejoin:round;stroke-miterlimit:10;stroke-opacity:1;stroke-dasharray:none"
       d="m 73.625,326.84 4,0" /><path
       inkscape:connector-curvature="0"
       id="path248"
       style="fill:#000000;fill-opacity:1;fill-rule:nonzero;stroke:none"
       d="m 527,326.84 -4,0" /><path
       inkscape:connector-curvature="0"
       id="path250"
       style="fill:none;stroke:#000000;stroke-width:0.5;stroke-linecap:butt;stroke-linejoin:round;stroke-miterlimit:10;stroke-opacity:1;stroke-dasharray:none"
       d="m 527,326.84 -4,0" /><text
       transform="scale(1,-1)"
       id="text254"
       x="48.3125"
       y="-322.47299"><tspan
         style="font-size:12px;font-variant:normal;font-weight:normal;writing-mode:lr-tb;fill:#000000;fill-opacity:1;fill-rule:nonzero;stroke:none;font-family:Arial Black;-inkscape-font-specification:Arial"
         x="48.3125 55.947266 63.582031"
         y="-322.47299"
         sodipodi:role="line"
         id="tspan256">800</tspan></text>
<path
       inkscape:connector-curvature="0"
       id="path258"
       style="fill:#000000;fill-opacity:1;fill-rule:nonzero;stroke:none"
       d="m 73.625,397.4 4,0" /><path
       inkscape:connector-curvature="0"
       id="path260"
       style="fill:none;stroke:#000000;stroke-width:0.5;stroke-linecap:butt;stroke-linejoin:round;stroke-miterlimit:10;stroke-opacity:1;stroke-dasharray:none"
       d="m 73.625,397.4 4,0" /><path
       inkscape:connector-curvature="0"
       id="path262"
       style="fill:#000000;fill-opacity:1;fill-rule:nonzero;stroke:none"
       d="m 527,397.4 -4,0" /><path
       inkscape:connector-curvature="0"
       id="path264"
       style="fill:none;stroke:#000000;stroke-width:0.5;stroke-linecap:butt;stroke-linejoin:round;stroke-miterlimit:10;stroke-opacity:1;stroke-dasharray:none"
       d="m 527,397.4 -4,0" /><text
       transform="scale(1,-1)"
       id="text268"
       x="41.171902"
       y="-393.03299"><tspan
         style="font-size:12px;font-variant:normal;font-weight:normal;writing-mode:lr-tb;fill:#000000;fill-opacity:1;fill-rule:nonzero;stroke:none;font-family:Arial Black;-inkscape-font-specification:Arial"
         x="41.171902 48.806664 56.441429 64.076195"
         y="-393.03299"
         sodipodi:role="line"
         id="tspan270">1000</tspan></text>
<path
       inkscape:connector-curvature="0"
       id="path272"
       style="fill:none;stroke:#000000;stroke-width:1;stroke-linecap:square;stroke-linejoin:round;stroke-miterlimit:10;stroke-opacity:1;stroke-dasharray:none"
       d="M 73.625,397.4 527,397.4" /><path
       inkscape:connector-curvature="0"
       id="path274"
       style="fill:none;stroke:#000000;stroke-width:1;stroke-linecap:square;stroke-linejoin:round;stroke-miterlimit:10;stroke-opacity:1;stroke-dasharray:none"
       d="m 527,44.6 0,352.8" /><path
       inkscape:connector-curvature="0"
       id="path276"
       style="fill:none;stroke:#000000;stroke-width:1;stroke-linecap:square;stroke-linejoin:round;stroke-miterlimit:10;stroke-opacity:1;stroke-dasharray:none"
       d="M 73.625,44.6 527,44.6" /><path
       inkscape:connector-curvature="0"
       id="path278"
       style="fill:none;stroke:#000000;stroke-width:1;stroke-linecap:square;stroke-linejoin:round;stroke-miterlimit:10;stroke-opacity:1;stroke-dasharray:none"
       d="m 73.625,44.6 0,352.8" /></g></svg>